<?xml version="1.0" encoding="UTF-8"?>
<!DOCTYPE svg PUBLIC "-//W3C//DTD SVG 1.1//EN" "http://www.w3.org/Graphics/SVG/1.1/DTD/svg11.dtd">
<svg version="1.1" id="Layer_1" xmlns="http://www.w3.org/2000/svg" xmlns:xlink="http://www.w3.org/1999/xlink" x="0px" y="0px" viewBox="-7.6667 -6.9 655.3333 589.8" enable-background="new -7.6667 -6.9 655.3333 589.8" xml:space="preserve">
<g>
	<path fill="#E96630" stroke="#E96630" stroke-width="0.0938" d="M287.18,0h7.54c14.41,0.95,28.42,5.92,40.42,13.9   c8.04,5.4,15.7,11.64,21.41,19.54c11.61,15.76,16.01,36.46,12.25,55.63c-2.39,11.96-7.61,23.71-16.54,32.23   c-1.99,2.01-4.39,3.58-6.22,5.73c-12.65,19.5-6.93,48.39,12.53,61.25c16.4,11.24,41.65,7.98,53.2-8.65   c9.01-12.67,5.47-31.97-7.45-40.61c0.58-0.31,1.74-0.93,2.32-1.25c9.64,6.87,14.69,19.58,12.47,31.2   c-1.41,8.36-6.44,15.95-13.35,20.83c-11.79,8.71-28.12,10.62-41.66,5.07c-12.97-5.05-22.52-16.83-26.65-29.91   c-3.57-11.03-2.85-23.2,1.47-33.91c-19.08,10.12-43.3,10.95-62.45,0.56c-10.4-5.63-18.97-15.04-22.32-26.52   c-3.93-12.41-2.19-26.8,5.58-37.39c6.26-8.64,16.66-13.95,27.27-14.44c9.85-0.03,20.37,4.84,24.85,13.96   c4.41,8.85,0.84,21.07-8.11,25.59c-7.03,3.72-16.39,2.1-21.73-3.8c-3.62-3.73-4.62-9.04-4.66-14.05   c-4.54,6.75-8.17,14.69-7.39,23.02c0.72,9.66,7.37,17.86,15.37,22.79c13.36,8.21,30.34,10.21,45.29,5.56   c10.41-3.21,19.57-10.34,25.01-19.81c6.73-11.89,10.06-25.86,8.52-39.5c-1.62-15.2-9.43-29.37-20.61-39.66   c-14.37-13.35-33.98-20.71-53.56-20.65c-16.74-0.23-33.29,5.08-47.41,13.93c-30.41,19.11-53.77,48.79-65.99,82.49   c6.74,8,12.05,17.5,13.52,27.98c2.17,12.68-1.22,25.74-7.7,36.69c5.4-2.85,11.34-4.64,17.47-4.69c7.39-0.26,14.79-0.99,22.2-0.73   c-0.21,7.47-3.06,14.55-6.87,20.88c-4.04,7.07-9.72,13.85-17.75,16.39c-8.79,3.03-18.27,0.46-26.36-3.42   c2.27-1.16,4.64-2.11,7.04-2.98c9.75-3.33,17.95-9.8,25.99-16.03c3.31-2.71,6.77-5.24,9.84-8.22c-9.21,5.3-17.39,12.32-26.93,17.09   c-5.74,2.78-11.93,4.44-18.12,5.88c4.68,28.81,14.35,56.63,26.64,83.02c-2.81-12.13-2.26-25.89,5.16-36.34   c5.23-7.66,15.03-11.84,24.17-10.02c11.37,2.12,21.06,9.59,28.31,18.31c10.67,13.54,15.54,30.82,16.98,47.78   c-0.1,5.82,0.12,11.64,0.01,17.46c-0.62,4.59-1.28,9.34-3.58,13.44c-1.42,2.47-5.06,4.56-7.57,2.34c-3.6-3.23-5.01-8.1-6.67-12.49   c-4.92-14.74-9.31-29.71-15.92-43.82c-2.29-4.59-4.16-9.7-8.28-13.01c-1,8.07,2.76,15.71,5.04,23.26   c4.45,13.94,10.64,27.49,12.72,42.07c0.94,4.39-0.96,10.03-5.89,10.85c-4.25-0.19-7.3-3.67-10.66-5.87   c0.96,1.39,1.93,2.76,2.88,4.16c-2.32-1.29-4.62-2.62-6.97-3.85c1.17,4.13,3.25,9.27,0.03,13.02c-2.62,3.14-7.22,1.99-10.61,1.02   c-9.67-3.39-18.51-8.69-27.72-13.11c-11.29-5.78-23-10.76-35.03-14.77c-4.26-1.26-8.64-2.83-13.15-2.28   c0.07,0.43,0.22,1.29,0.29,1.73c2.66,3.51,6.76,5.5,10.48,7.68c15.7,8.54,32.44,15.03,47.98,23.88c4.69,2.8,9.57,5.69,12.93,10.11   c3.15,3.93,1.98,10.89-2.85,12.89c-5.6,2.57-11.85,2.73-17.89,3.07c7.15,2.63,14.98,4.72,20.48,10.32c3,2.97,3.78,8.76-0.14,11.34   c-6.22,4.05-13.91,4.44-21.04,5.6c-21,2.64-42.24,4.96-62.45,11.59c-3.26,1.21-6.99,2.25-8.93,5.41c4.57,1.72,9.53,1.46,14.3,1.09   c19.75-1.78,39.14-6.35,58.92-7.76c5.85-0.2,11.99-0.71,17.57,1.45c4.81,1.82,7.6,8.29,4.76,12.8c-2.95,4.85-7.43,8.53-11.89,11.93   c-11.9,8.71-25.29,15.11-38.76,20.99c-9.91,4.3-20.49,7.17-31.29,7.92c-3.17-0.07-6.34-0.08-9.51-0.03   c-13.68-1.06-27.68-6.42-36.49-17.33c-6.95-8.36-9.65-20-7.05-30.56c3.19-13.68,12.89-24.81,23.8-33.17   c13.53-10.28,30.57-14.65,47.29-15.89c-7.86-2.22-15.82-4.36-22.99-8.4c-13.23-7.03-24.84-18.79-28.34-33.73   c-2.81-11.05,0.43-23.4,8.55-31.47c9.27-9.48,22.74-13.31,35.63-14.32c18.57-1.18,36.72,6.03,51.76,16.48   c-4.87-10.23-9.39-20.62-13.39-31.23c-1.21-3.82-4.89-5.93-7.86-8.26c-8.31-5.58-17.37-9.94-26.5-13.98   c6.71,4.59,14.03,8.17,20.76,12.73c8.09,5.59,15.15,13.35,18.29,22.75c-6.88-0.03-12.79-3.62-19.17-5.59   c5.66,3.43,11.7,6.43,18.33,7.33c-3.8,2.65-8.9,4.41-13.36,2.37c-5.18-2.26-8.39-7.25-10.84-12.11c-3.68-2.99-7.77-5.67-10.28-9.83   c-4.14-6.78-7.63-13.94-11.19-21.04c10.62-4.69,23.29-3.23,33.69,1.39c-9.3-31.48-14.3-64.51-11.94-97.36   c1-13.52,3.57-26.98,8.41-39.67c-7.18-6.05-16.43-9.63-25.87-9.37c-8.24,0.12-17.74,0.84-23.49,7.57   c-8.76,10.11-8.84,24.46-15.34,35.78c-4.5,7.5-10.74,13.95-18.1,18.69c-1.37-8.2-3.85-17.48,0.75-25.1   c2.55-4.61,7.69-6.8,10.76-10.93l-0.52-1.1c-5.13-0.35-9.65,2.96-14.7,3.49c2.92-6.86,8.54-12.11,14.12-16.87   c12.82-10.22,28.86-17.15,45.42-17.24c-10.39-4.67-18.99-13.1-23.73-23.48c-3.68-8.11-5.72-16.88-7.18-25.63   c-1.2-7.97-1.55-16.37,1.32-24.05c11.15,6.35,22.41,12.52,33.26,19.38c4.46,2.84,8.24,6.57,11.88,10.38   c-0.17-0.99-0.51-2.95-0.68-3.93c0.55-2.25,0.57-4.56-0.03-6.8c0.96-7.05,2.68-14.97,8.92-19.3c3.31,4.9,6.84,9.68,9.74,14.85   c3.91,7.4,3.16,16.59-1.47,23.49c4.7-4.48,9.62-9.17,16.11-10.82c0.44,6.46,0.67,12.93,0.8,19.41   c9.86-13.81,21.33-26.53,34.65-37.08C243.08,11.55,264.41,1.13,287.18,0 M165.45,23c-0.65,12.03,0.26,24.33,4.94,35.54   c0.47-0.67,1.39-2,1.86-2.67c-2.14-5.09-4.27-10.28-5.05-15.78C166.73,34.39,166.32,28.66,165.45,23 M123.6,37.52   c7.35,13.03,14.73,26.12,23.8,38.06c4.63,5.99,10.33,11.01,15.35,16.65c2.17,2.76,5.51,4.13,8.38,6c1.19-2.3,2.13-4.72,3.16-7.09   c-0.58,0.08-1.74,0.24-2.32,0.33c1.06-6.2,1.84-12.53,4.17-18.42c2.98-7.39,6.69-14.48,9.56-21.92   c-4.59,7.55-8.63,15.46-12.06,23.6c-2.14,4.95-2.73,10.38-4.51,15.44c-11.18-8.5-21.46-18.42-29.18-30.22   c-7.18-10.07-13.52-20.7-20.66-30.79C120.52,32.05,122.1,34.77,123.6,37.52 M165.95,57.91c0.52,1.33,1.07,2.64,1.63,3.96   c0.73-0.49,1.29-1.12,1.69-1.89C168.22,59.19,167.08,58.55,165.95,57.91 M291.26,61.38c-6.27,1.75-10.41,8.32-9.89,14.71   c0.27,7.85,7.6,15.07,15.65,13.94c8.41-0.81,13.86-10.4,11.35-18.22C306.63,64.54,298.65,59.1,291.26,61.38 M365.55,67.84   c-0.37,3.81-0.42,7.65-0.04,11.45C366.19,75.52,366.27,71.62,365.55,67.84 M174.32,109.78c-7.4,23.02-9.17,47.53-6.85,71.52   c2.56-2.12,4.28-5.02,6.25-7.65c7.03-10.19,12.6-22.07,12.55-34.68C186.4,128.14,181.7,117.59,174.32,109.78 M306.85,129.59   c5.05,0.55,10.2,0.74,15.23-0.1C317.01,129.18,311.9,128.98,306.85,129.59 M338.5,157.08c0.35-4.07,0.39-8.18-0.03-12.24   C337.81,148.89,337.75,153.04,338.5,157.08 M165.3,169.19c0.74-5.42,0.36-10.94,0.23-16.39C164.49,158.18,165,163.75,165.3,169.19    M168.1,187.34C166.53,190.34,171.38,187.55,168.1,187.34z"/>
	<path fill="#E96630" stroke="#E96630" stroke-width="0.0938" d="M525.27,102.65c0.26,1.05,0.54,2.1,0.85,3.14   c-0.84,6.72-0.44,13.49,0.62,20.16c0.75,4.64-1.67,8.84-4.08,12.59c1.25-0.7,2.6-1.27,3.72-2.19c1.57-2.41,1.38-5.58,3.06-7.94   c1.4-1.95,3.72-2.86,5.8-3.9c-1.05,2.23-2.15,4.44-3.21,6.66c7.12-4.48,15.53-7.42,24.03-6.77c6.16,0.37,12.15,2.7,16.99,6.52   c3.1,2.64,7.36,2.76,11.02,4.2c31.24,10.5,54.54,41.16,55.93,74.12v4.56c-0.57,17.28-7.45,34.32-19.2,47.04   c-9.66,10.51-22.61,18.22-36.72,20.8c-4.46,0.9-9.17,0.18-13.49,1.83c-11.8701,4.1-24.67,2.28-36.76,0.22   c-6.26-1.43-12.93-2.53-18.23-6.39c-3.15-2.1-2.33-7.26,0.85-8.95c5.42-3.23,11.81-4.21,17.9-5.5c-1.37-1.72-2.4-3.84-4.19-5.14   c-6.04,0.86-12.05,3.02-18.21,2.19c-3.09-0.32-4.18-4.3-2.73-6.7c3.34-6.06,9.87-9.04,14.98-13.3c-5.45,1.35-10.42,4.58-16.18,4.61   c-2.53,0.31-4.58-2.11-4.71-4.48c0.63-3.66,3.12-6.6,5.4-9.4c4.91-5.72,10.37-10.92,15.53-16.4c2.69-2.8,4.18-6.45,6.02-9.8   c-6.94,3.69-12.45,9.46-17.97,14.95c-5,4.95-9.13,10.93-15.03,14.88c-2.09,1.58-4.95,0.05-5.46-2.34   c-0.83-3.85,0.47-7.77,1.74-11.39c4.2-11.48,11.79-22.13,22.5-28.32c8.71-4.81,20.02-6.53,29-1.45c9.89-5.84,22.45-7.47,33.14-2.82   c14.22,5.61,23.76,22.35,19.12,37.33v-1.23c-0.51,0.2-1.53,0.59-2.04,0.79l0.1-1.47c-0.05-0.6-0.15-1.79-0.2-2.38   c-0.0099-1.94-0.91-3.63-1.7599-5.3c-0.19-0.43-0.56-1.3-0.75-1.73c1.16,0.58,2.31,1.21,3.47,1.84   c-1.82-10.26-8.22-19.83-17.79-24.29c-9.59-4.83-21.22-3.63-30.4,1.58c3.54,4.09,5.55,9.49,4.94,14.93   c-0.94,10.05-7.78,18.59-15.91,24.09c-3.21,2.4-7.23,3.62-10.04,6.55c3.93-1.05,7.53-3.07,11.46-4.14   c11.15-3.37,23.65-4.1,34.53,0.61c4.06,1.64,7.73,4.06,11.1801,6.73c2.05-2.04,4.16-4.02,6.16-6.11l-0.33,1.74   c-1.7,1.73-3.67,3.16-5.62,4.56c4.47,4.47,8.01,10.38,7.71,16.91c0.1,7.25-4.29,13.49-9.34,18.27   c12.75-2.22,24.49-8.91,33.44-18.19c9.91-10.19,16.2-23.64,18.26-37.67c2.64-2.35,1.31-6.26,1.65-9.35   c-0.4-3.07,0.96-7.02-1.74-9.29c-4.4-28.48-26.1201-53.17-53.6801-61.45c0.8,5.78-0.62,12.24-5.34,16.04   c-3.35,3.18-8.47,2.8-12.51,1.34c2.77,0.34,5.6,1.38,8.37,0.44c0.92-1.58,0-3.41,0-5.1c-1-5.01,1.94-9.62,1.93-14.59   c-11.62-1.98-23.67-1.61-35.02,1.7c-20.3101,5.94-38.19,19-50.97,35.77c2.95,1.58,5.93,3.4,7.77,6.29   c5.22,7.5,5.02,17.48,2.19,25.85c-2,5.45-4.07,10.92-6.95,15.98c-1.57,2.47-3.23,5.22-6.05,6.4c-2.69,0.24-4.51-2.13-4.76-4.58   c-1.47-11.39,1.95-22.81,0.35-34.19c-0.95,0.71-1.78,1.6-1.97,2.82c-1.56,5.71-2.09,11.63-2.54,17.51   c-0.51,6.21,0.19,12.72-2.4,18.56c-1.47-0.21-2.95-0.4-4.41-0.61c0.46-1.86-1.8-2.45-2.43-0.71c-2.22,0.27-4.42,0.51-6.63,0.77   c-4.85-7.3-9.62-14.64-14.53-21.9c-1.54-2.21-2.1-4.89-2.89-7.42c1.41,0.04,2.82,0.09,4.24,0.16c7.58,2.09,11.41,10.15,12.39,17.39   c0.79-4.39,2.65-8.64,2.46-13.16c-0.15-6.19,1.08-12.51,4.26-17.87c2.44-4.76,6.82-7.86,10.89-11.09   c6.05-8.45,12.94-16.35,21.02-22.96c3.12-2.39,4.51-6.21,5.74-9.79c0.66,1,1.31,2.02,1.94,3.05v1.55c2.16-2.07,2.65-5.02,3.11-7.83   c0.53,1.37,1.16,2.7,1.8,4.03c2.15-1.35,4.47-2.44,6.51-3.95c1.81-2.32,2.39-5.37,2.92-8.21c0.91-5.38-1.8-10.67-0.64-16.05   C519.21,111.55,522.36,107.05,525.27,102.65 M536.13,130.02c-2.02,1.21-4.39,2.36-5.03,4.86c7.02-2.05,14.19-3.54,21.4901-4.17   c3.85,0.28,7.72,0.3,11.59,0.14c2.01,0.33,4.03,0.53,6.08,0.75c-2.63-3.12-6.32-5.27-10.31-6.06   C551.8,124.08,543.27,125.94,536.13,130.02 M549.9,137.51c5.75,0.35,11.53,0.42,17.28,0.04   C561.48,136.62,555.61,136.8,549.9,137.51 M535.39,256.63c1.42,1.82,2.93,3.59,4.48,5.32c7.97-1.81,16.23-2.48,23.96-5.27   c0.95-0.55,3.55-1.01,2.35-2.6C555.89,252.8,545.49,254.72,535.39,256.63z"/>
	<path fill="#E96630" stroke="#E96630" stroke-width="0.0938" d="M463.82,136.51c-2.07-2.96-1.67-6.81-0.03-9.86   C463.2,129.91,463.23,133.25,463.82,136.51z"/>
	<path fill="#E96630" stroke="#E96630" stroke-width="0.0938" d="M307.54,144.72c6.52-1.78,13.86,0.33,18.53,5.19   c4.08,4.14,6.05,10.19,5.24,15.94c-0.75,6.06-4.66,11.59-10.07,14.39c-6.26,3.38-14.4,2.81-20.12-1.42   c-5.91-4.14-9.04-11.83-7.67-18.91C294.68,152.68,300.42,146.49,307.54,144.72 M307.97,151.83c-6.03,2.1-9.17,9.06-7.53,15.09   c0.11-3.46,0.98-7.33,4.2-9.22c4.54-3.29,11.64-1.07,13.61,4.15c2.45,5.15-1.32,12.07-7.1,12.49c-1.38-0.67-2.93-0.15-4.37-0.11   c2.44,1.77,5.48,2.36,8.31,1.1c6.15-1.47,10.62-7.93,9.28-14.22C323.37,153.8,314.76,148.9,307.97,151.83 M306.38,160.49   c-4.08,2.52-2.99,9.42,1.66,10.58c4.14,1.41,8.64-2.8,7.45-7C314.82,160.08,309.61,158.17,306.38,160.49z"/>
	<path fill="#E96630" stroke="#E96630" stroke-width="0.0938" d="M473.09,146.43c2.24-0.01,4.48,0.11,6.72,0.24   C477.83,148.42,474.81,148.68,473.09,146.43z"/>
	<path fill="#E96630" stroke="#E96630" stroke-width="0.0938" d="M271.55,161.65c6.52-1.65,13.79,0.6,18.33,5.54   c5.88,5.93,6.96,16,2.4,23.01c-4.3,7.55-14.11,11.12-22.3,8.3c-7.76-2.46-13.46-10.29-13.15-18.47   C256.71,171.46,263.24,163.52,271.55,161.65 M271.02,169.08c-6.82,2.75-9.54,12-5.28,18.01c4.3,7.09,15.98,7.25,20.3,0.13   c-2.19,1.22-4.39,2.94-7.05,2.69c-5.48-0.05-10.08-5.7-8.82-11.09c0.96-5.13,6.78-8.81,11.79-7c2.63,0.65,4.21,3.01,5.93,4.9   C285.67,170.06,277.53,165.85,271.02,169.08 M276.42,175.45c-3.68,1.81-4.13,7.53-0.77,9.89c3.45,2.91,9.52,0.24,9.5-4.31   C285.7,176.55,280.25,173.12,276.42,175.45z"/>
	<path fill="#E96630" stroke="#E96630" stroke-width="0.0938" d="M303.43,184.69c7.65-1.89,16.22,1.73,20.36,8.4   c2.98,4.63,3.89,10.59,2.17,15.85c-1.84,6.45-7.4,11.64-13.94,13.1c-6.78,1.72-14.39-0.79-18.89-6.12   c-3.49-4.01-5.22-9.54-4.52-14.82C289.49,193.27,295.69,186.31,303.43,184.69 M308.1,191.19c5.7,0.91,9.52,7.47,6.87,12.75   c-2.46,6.26-11.91,7.41-15.76,1.88c-2.75-3.13-2.06-7.37-0.46-10.83c-6.32,5.98-3.16,17.92,5.27,20.08   c6.75,2.35,14.69-2.52,15.72-9.58C321.16,198.51,315.32,191.06,308.1,191.19 M304.5,194.7c-4.33,1.24-5.25,7.76-1.53,10.24   c3.6,3.14,10-0.19,9.4-4.98C312.44,196.1,308.02,193.21,304.5,194.7z"/>
	<path fill="#E96630" stroke="#E96630" stroke-width="0.0938" d="M439.81,201.23c3.37,3.11,2.06,8.95-2.44,10.03   c-0.75-1.3-1.6-2.53-2.26-3.87c-0.12-1.69-0.16-3.39-0.18-5.08C436.57,202.07,438.23,201.8,439.81,201.23z"/>
	<path fill="#E96630" stroke="#E96630" stroke-width="0.0938" d="M426.17,210.75c1.29-1.38,2.64-3.19,4.79-2.95   c4.31-0.7,6.71,4.91,4.37,8.13c-1.23,2.33-3.98,2.44-6.28,2.4C429.42,215.4,428.4,212.68,426.17,210.75z"/>
	<path fill="#E96630" stroke="#E96630" stroke-width="0.0938" d="M420.15,212.09c2.58-1.8,6.38-0.53,7.41,2.43   c1.94,4.11-3.09,9.25-7.22,7.12C416.49,219.96,416.55,214.03,420.15,212.09z"/>
	<path fill="#E96630" stroke="#E96630" stroke-width="0.0938" d="M437.91,211.7c2.55,0.58,5.58,2.17,5.29,5.26   c0.57,3.8-4.09,7.48-7.54,5.37c-1.67-0.4-2.67-2.78-1.11-3.93C436.52,216.65,437.38,214.21,437.91,211.7z"/>
	<path fill="#E96630" stroke="#E96630" stroke-width="0.0938" d="M29.09,219.76c5.95,7.14,10.76,15.17,16.78,22.24   c-2.12-4.21-4.65-8.2-6.76-12.42c6.08,1.34,12.02,4.45,15.45,9.83c4.72,6.54,3.83,15.26,8.05,22.02c2.54,4.22,6.01,8.39,5.97,13.59   c0.19,2.66-1.13,5.18-3.07,6.93l-1.74,0.28c1.48-1.68,3.32-3.27,3.91-5.51c0.71-4.13-1.11-8.29-3.96-11.22   c-6.06-6.45-14.71-9.34-21.7-14.54c-2.92-2.17-4.79-5.41-6.29-8.65C32.46,235.15,30.54,227.46,29.09,219.76z"/>
	<path fill="#E96630" stroke="#E96630" stroke-width="0.0938" d="M418.04,221.89c1.88,0.88,3.91,1.3,6,1.29   c0.92,1.94,1.78,4.33,0.49,6.32c-1.55,3.31-6.86,4.14-8.88,0.85C413.57,227.44,415.18,223.6,418.04,221.89z"/>
	<path fill="#E96630" stroke="#E96630" stroke-width="0.0938" d="M434,222.92c1.35,0.47,2.72,0.91,4.11,1.3   c0.45,1.56,0.84,3.16,0.65,4.8c-1.38,1.9-3.14,3.97-5.73,3.83c-2.65,0.12-3.9-2.48-5.12-4.37c0.93-0.56,1.86-1.13,2.77-1.73   C432.3,225.99,433.04,224.31,434,222.92z"/>
	<path fill="#E96630" stroke="#E96630" stroke-width="0.0938" d="M407.59,230.79c0.75-2.5,3.33-3.78,5.81-3.77   c0.15,3.02,2.04,5.24,4.47,6.82c-1.16,1.51-2.27,3.28-4.24,3.82C409.78,239.13,405.78,234.36,407.59,230.79z"/>
	<path fill="#E96630" stroke="#E96630" stroke-width="0.0938" d="M419.56,233.95c3.32-0.57,5.65-2.98,7.36-5.74   c0.52,2.99,4.58,5.23,2.78,8.45c-1.11,2.89-4.2,3.6-6.97,3.39C420.88,238.52,420.46,236.04,419.56,233.95z"/>
	<path fill="#E96630" stroke="#E96630" stroke-width="0.0938" d="M383.7,239.91c2.07-5.42,7.95-8.07,13.29-9.08   c2.29-0.17,4.58-0.25,6.88-0.35c-1.35,2.41-3.64,5.12-2.28,8.05c1.06,3.42,4.85,4.27,7.97,4.53l0.05,1.35   c-3.65-1.02-7.39-1.79-11.2-1.7c1.81,1.66,4.03,2.74,6.34,3.53c7.51,2.72,15.22,4.9,22.44,8.35c-0.09-0.23-0.27-0.67-0.36-0.9   c1.28,1.94,4.76,4.28,2.68,6.86c-3.35,2.17-7.56,2.13-11.4,2.44c-3.93-0.27-7.83-0.78-11.77-0.97c-6.63-0.11-13.17-2.87-18.04-7.34   C384.37,251.03,381.63,245.21,383.7,239.91z"/>
	<path fill="#E96630" stroke="#E96630" stroke-width="0.0938" d="M461.41,234.03c10.03-1.16,20.55,2.92,26.74,10.99   c8.82,10.89,8.25,27.79-0.85,38.34c-8.91,11.2-26.24,14.46-38.43,6.8c-10.42-6.05-15.8-18.8-13.85-30.56   c1.82,1.08,3.67,2.14,5.47,3.28c1.41,3.22,2.55,7.12,6.12,8.59c6.11,2.62,13.1,0.1,18.08-3.78c5.58-4.39,10.15-11.32,9.15-18.69   c-0.45-3.48-3.07-6.16-6.22-7.43c-2.59-1.01-3.78-3.65-5.25-5.79C462.13,235.34,461.65,234.47,461.41,234.03z"/>
	<path fill="#E96630" stroke="#E96630" stroke-width="0.0938" d="M484.3,236.55c1.36-1.66,3.23-2.58,5.4-2.59   c0.18,2.29,0.19,4.61,0.6,6.89c3.28,2.18,7.38-0.23,11-0.03c0.16,3.48-1.56,6.69-1.56,10.17c2.16,0.32,4.32,0.69,6.47,1.11   c0.13,3.13-1.33,5.94-2.1,8.89c1.75,3.06,6.48,4.84,5.81,8.92c-1.69,3.07-6.08,3.68-7.3,7.02c1.71,3.02,6.54,4.94,5.14,9.08   c-1.11,4.57-6.72,2.99-9.86,4.91c-3.37,2.1-1.66,6.69-3.28,9.74c-3.65,3.3-8.48-2.1-12.4,0.44c-1.96,1.51-2.79,3.98-4.32,5.86   c-3.84,0.49-6.1-3.89-9.87-4.06c-3.63-0.02-6.49,2.77-10,3.33c-2.3-0.71-2.57-4.01-4.94-4.72c-2.84-1.21-5.9-0.14-8.6,0.91   c-2.6-2.19-1.73-5.6-1.37-8.54c-2.4-0.55-5.21-0.29-7.12-2.08c-0.15-2.6,2.79-5.22,0.74-7.57c-2.24-1.8-5.45-2.44-6.91-5.09   c0.43-0.55,1.27-1.64,1.7-2.19c0.46-0.51,0.93-1.01,1.41-1.5c2.36,6.74,6.79,12.82,12.81,16.73c1.67,0.92,2.63,2.54,3.46,4.2   c3.62-0.69,7.19,0.17,10.25,2.19c3.31,2.48,6.93-2.23,10.39-0.44c2.04,0.74,3.97,1.88,6.15,2.18c1.95-1.14,2.74-3.79,4.92-4.48   c3.2-0.08,6.39,0.26,9.6,0.07c0.27-2.11,0.14-4.35,0.97-6.34c1.81-3.19,6.04-2.68,8.99-4.04c2.26-3.43-3.17-6.07-3.63-9.45   c1.34-2.51,4.25-4.04,4.93-6.9c-0.48-2.17-2.48-3.59-3.56-5.47c-0.04-2.21,1.01-4.27,1.27-6.46c-3.49-2.09-3.58-6.29-5.14-9.61   C491.54,243.5,488.34,239.54,484.3,236.55z"/>
	<path fill="#E96630" stroke="#E96630" stroke-width="0.0938" d="M284.62,260.67c5.49-5.38,14.11-8.5,21.44-5.11   c8.65,3.99,12.71,13.73,14.16,22.61c0.16,2.39,0.22,4.79,0.29,7.19c-2.86-1.79-5.86-4.08-9.46-3.59c-3.21-0.03-5.74,2.16-7.77,4.4   c0.08-2.35-0.05-4.7-0.32-7.03c-0.3-0.08-0.91-0.23-1.21-0.3l-1.4-0.32c-6.5,13.08-7.82,28.01-13.42,41.45   c-1.21,2.63-2.38,5.52-4.8,7.29c-2.16,1.57-5.54,0.6-6.4-1.97c-4.21-9.13-3.69-19.47-3.69-29.28   C271.52,283.29,275.22,269.66,284.62,260.67z"/>
	<path fill="#E96630" stroke="#E96630" stroke-width="0.0938" d="M369.33,279.47c8.11-9.75,20.86-14.44,33.22-15.42   c8.56,0.23,17.84-1.38,25.62,3.17c0.55,0.56,1.15,1.05,1.81,1.47c-0.01,0.83-0.02,2.48-0.03,3.3c-4.04,3.08-9.11,4.11-13.91,5.39   c-9.67,2.44-19.36,5.02-28.48,9.11c-1.74,0.76-3.45,1.75-4.33,3.52c15.02-0.84,28.76-8.53,43.77-9.43c3-0.37,6.78,1.94,5.92,5.33   c-1.65,3.71-4.86,6.41-7.94,8.91c-6.15,4.72-12.75,8.89-19.67,12.41c-9.06,4.33-19.82,6.42-29.54,3.07   c-5.94-1.99-11.34-6.79-12.49-13.16C362.1,290.66,365.26,284.31,369.33,279.47z"/>
	<path fill="#E96630" stroke="#E96630" stroke-width="0.0938" d="M514.57,282.68c3.4-0.92,7-0.55,10.4,0.23   c10.3,2.11,19.72,7.05,28.72,12.33c10.06,5.96,18.96,14.69,23.14,25.8c3.07,8.04,3.11,17.64-1.67,25.02   c-4.27,6.83-12.29,10.59-20.17,10.95c-12.59,0.77-25.31-3.9-34.59-12.42c-10.39-9.46-17.86-22.25-20.75-36.02   c-0.68-4.11-1.51-9.49,2.35-12.34c2.08-1.74,4.77-0.31,6.62,1.04c3.96,3.03,7.22,6.86,10.68,10.43   c8.77,9.25,17.88,18.43,28.85,25.06c3.03,1.7,6.25,3.79,9.91,3.19c-0.48-3.6-3.01-6.36-5.24-9.03   c-4.92-5.63-10.25-10.98-16.37-15.31c-7.1-5.31-15.01-9.51-21.81-15.24c-2.12-1.96-4.47-4.28-4.68-7.33   C509.52,286.12,511.87,283.43,514.57,282.68z"/>
	<path fill="#E96630" stroke="#E96630" stroke-width="0.0938" d="M307.95,284.19c3.51-2,7.65-0.54,10.57,1.82   c-0.55,0.87-1.1,1.75-1.64,2.62c-2.91,0.46-5.4,2.05-7.2,4.34c-1.93,0.08-3.85,0.18-5.77,0.32   C303.47,289.8,304.45,285.74,307.95,284.19z"/>
	<path fill="#E96630" stroke="#E96630" stroke-width="0.0938" d="M318.68,288.6c3.65-6.03,13.21-4.32,15.5,2.04   c-2.91,2.39-4.45,5.95-4.3,9.71c-2.17-0.36-1.52-2.81-2.04-4.34C326.87,291.82,322.76,289.13,318.68,288.6z"/>
	<path fill="#E96630" stroke="#E96630" stroke-width="0.0938" d="M315.77,290.51c5.59-1.69,11.34,3.3,11.13,9   c-4.49,0.1-7.91,3.24-9.72,7.12c-2.6-1.11-5.4-2.52-6.51-5.31C308.49,297.12,311.17,291.52,315.77,290.51z"/>
	<path fill="#E96630" stroke="#E96630" stroke-width="0.0938" d="M335.06,292.13c5.27-3.79,13.44,0.43,13.54,6.91   c-1.68,1.17-3.39,2.3-4.97,3.61c-2.64,0.15-5.09,1.05-7.25,2.57c-1.28-1.67-2.75-3.19-4.42-4.47   C331.48,297.55,332.11,293.97,335.06,292.13z"/>
	<path fill="#E96630" stroke="#E96630" stroke-width="0.0938" d="M426.06,295.97c3.3-1.71,7.83-4.21,11.22-1.36   c2.79,2.76,0.39,6.87-0.87,9.82c-7.05,13-15.43,25.42-20.27,39.5c-0.73,2-1.14,4.12-1.04,6.26c3.11-1.51,4.87-4.64,6.72-7.4   c5.59-9.18,10.33-18.85,15.97-28.01c2.33-3.57,4.7-7.3,8.21-9.84c2.58-1.92,7.05-1.08,8.24,2.06c1.41,3.51,1.36,7.37,1.49,11.09   c2.41-3.98,3.67-8.86,7.43-11.94c2.11-2.05,6.42-2.03,7.68,0.98c2.43,4.87,2.11,10.48,2.73,15.75c0.72,12.91,1.64,25.91,4.87,38.48   c0.72,2.19,1.05,5.02,3.42,6.12c2.03-7.01,0.64-14.34,0.19-21.46c-0.65-9.34-2.01-18.65-1.87-28.03c0.17-3.4,0.23-7.01,1.89-10.06   c1.59-3.03,6.16-4.11,8.74-1.75c5.94,5.05,9.58,12.18,12.9,19.09c3.99,9.17,8.18,18.53,9.38,28.55c0.18,4.46,0.18,8.92,0,13.38   c-1.2,9.31-5.93,18.63-14.11,23.64c-6.1,3.81-13.97,4.32-20.61,1.71c-7.64-2.93-13.67-8.93-18.26-15.55   c-6.41-9.35-8.77-20.9-8.7-32.09c-2.59,7.34-5.5,14.77-10.79,20.64c-5.84,6.79-14.39,11.9-23.57,11.55   c-7.49-0.06-14.51-4.58-18.22-10.99c-5-8.51-5.92-18.98-4.1-28.55C398.78,320.16,410.91,305.13,426.06,295.97z"/>
	<path fill="#E96630" stroke="#E96630" stroke-width="0.0938" d="M300.38,298.39c1.66-3.08,5.28-3.92,8.51-3.68   c-1.93,5.14,1.29,10.61,6.01,12.82c-2.37,2.55-6.05,4.26-9.5,2.91C300.5,309.1,297.48,302.82,300.38,298.39z"/>
	<path fill="#E96630" stroke="#E96630" stroke-width="0.0938" d="M319.4,311.74c-1.92-4.61,1.6-10.08,6.5-10.54   c3.69-0.43,7.42,1.7,9.09,4.99c-0.8,2.84-1.94,5.69-1.15,8.69C329.59,319.24,321.39,317.57,319.4,311.74z"/>
	<path fill="#E96630" stroke="#E96630" stroke-width="0.0938" d="M345.64,302.34c2.31-0.95,4.76-2.09,7.32-1.55   c4,0.52,6.97,4.16,7.37,8.08c-2.47,0.57-4.82,1.52-7.09,2.63C353.11,306.89,348.83,304.73,345.64,302.34z"/>
	<path fill="#E96630" stroke="#E96630" stroke-width="0.0938" d="M341.43,304.53c6.24-1.62,12.81,5.55,9.75,11.52   c-2.65,6.16-12.36,5.79-15.1-0.11C333.31,311.57,336.39,305.31,341.43,304.53z"/>
	<path fill="#E96630" stroke="#E96630" stroke-width="0.0938" d="M309.33,312.48c2.66-0.4,4.66-2.72,7.27-3   c1.73,1.95,1.7,5.23,4.11,6.79c1.31,1.43,5.41,2.08,3.17,4.5c-2.94,1.73-4.8,6.26-8.84,4.88   C309.05,324.86,305.72,317.39,309.33,312.48z"/>
	<path fill="#E96630" stroke="#E96630" stroke-width="0.0938" d="M352.76,315.55c2.69-6.58,13.03-5.99,15.52,0.45   c2.86,5.48-2.52,11.79-8.33,11.15C360.42,322.11,357.36,317.48,352.76,315.55z"/>
	<path fill="#E96630" stroke="#E96630" stroke-width="0.0938" d="M328.02,319.38c2.24-0.63,4.41-1.53,6.35-2.83   c1.5,1.99,3.25,3.82,5.58,4.84c0.02,2.24,0.08,4.49,0.21,6.74c-3.2,0.86-6.87,0.37-9.28-2.06   C328.96,324.37,328.51,321.76,328.02,319.38z"/>
	<path fill="#E96630" stroke="#E96630" stroke-width="0.0938" d="M352.47,317.27c3.44,1.44,6.24,4.88,5.61,8.78   c-0.11,5.36-6.75,8.62-11.33,6.27c-4.05-1.53-6.11-6.2-5-10.29C345.98,322.75,350.19,320.9,352.47,317.27z"/>
	<path fill="#E96630" stroke="#E96630" stroke-width="0.0938" d="M319.83,330.92c-0.98-4.45,2.67-8.27,6.81-9.11   c1.2,4.34,4.77,7.23,8.89,8.69c-1.3,1.77-1.54,3.95-2.05,6.02C328.71,340.31,320.37,337.15,319.83,330.92z"/>
	<path fill="#E96630" stroke="#E96630" stroke-width="0.0938" d="M308.57,324.13c2.2,1.39,4.4,2.98,7.11,3.15   c-14.29,16.6-29.03,32.85-43.67,49.13c-1.41-1.57-2.49-3.38-3.56-5.18C281.92,355.61,295.4,339.99,308.57,324.13z"/>
	<path fill="#E96630" stroke="#E96630" stroke-width="0.0938" d="M359.27,328.78c2.73-0.06,5.35-0.79,7.8-1.96   c1.67,2.2,3.23,4.92,2.47,7.79c-0.87,4.67-6.45,7.52-10.77,5.68c-2.83-0.84-4.63-3.3-5.8-5.86   C355.64,333.27,357.91,331.39,359.27,328.78z"/>
	<path fill="#E96630" stroke="#E96630" stroke-width="0.0938" d="M273.67,378.74c14.51-16.89,29.52-33.36,44.14-50.16   c0.1,2.93,1.12,5.71,2.96,8c-13.99,15.54-28.22,30.87-42.19,46.45C276.94,381.6,275.31,380.17,273.67,378.74z"/>
	<path fill="#E96630" stroke="#E96630" stroke-width="0.0938" d="M336.32,339.64c-2.34-3.83-0.49-10.1,4.53-10.29   c2.6,3.66,6.77,5.63,11.24,5.51c0,2.27-0.04,4.76-1.69,6.53C346.82,345.91,338.79,344.77,336.32,339.64z"/>
	<path fill="#E96630" stroke="#E96630" stroke-width="0.0938" d="M238.85,341.75c5.91-1.61,4-10.99,10.18-12.16   c2.2,0.94,4.02,2.55,6.01,3.86c-11.86,4.45-21.51,13.69-27.32,24.87c-1.14,0.36-2.26,0.78-3.35,1.25c-1.53,1.1-0.45,2.86-0.24,4.3   c0.92,3.08-0.01,6.32-0.97,9.28c-1.16,1.82-3.05,3.07-4.26,4.87c1.18,4.16,4.43,7.56,4.81,11.98c0.5,4.42-3.84,7.46-4.33,11.58   c1.22,3.05,5.4,3.17,7.25,5.79c2.71,2.92,1.02,7.04,0.77,10.52c-0.24,1.95-0.8,5.18,1.74,5.85c4.06,0.58,9.32-0.85,11.97,3.25   c3.29,3.49,1.09,10.28,5.82,12.43c4.99,0.02,7.19-5.21,11.05-7.4c5.34-1.31,6.01,7.25,11.08,7.01c4.3-0.37,6.41-4.83,9.99-6.63   c3.03,0.09,5.85,1.56,8.9,1.53c1.84-0.23,1.88-2.41,2.59-3.71c3.99-1.59,7.96-3.78,12.42-3.31c0.45-1.63,0.93-3.35,2.52-4.22   c5.24-3.74,9.76-8.46,13.17-13.93c2.11,1.85,5.16,4.05,4.21,7.3c-2.53,3.36-8.34-0.25-10.68,3.26c-1.82,3.57,0.53,7.38,0.73,11.03   c0.04,1.19,0.11,2.37,0.23,3.57l0.09,1.34l-1.42-0.16c-1.16-0.16-2.32-0.21-3.48-0.16c-3.5,0.08-7.49-3.09-10.52,0   c-0.29,2.95,0.8,6.77-1.96,8.86c-4.42,1.35-8.36-2.39-12.72-2.09c-4.57,2.3-6.12,9.5-12.02,9.51c-5.89-0.83-6.65-8.96-12.06-10.4   c-4.63,1.61-5.84,8.22-11.11,8.74c-3.37,0.29-7.57-1.4-8.22-5.08c-0.86-4.04-1.18-8.82-4.72-11.55c-4.05-3.22-10.01,0.44-13.92-2.9   c-4.85-5.3,2.78-12.48-1.22-18.08c-1.88-3.01-5.48-3.91-8.44-5.44c-1.85-0.96-1.81-3.56-1.01-5.2c1.82-3.72,5.2-6.92,5.09-11.35   c-0.17-5.61-5-9.62-5.99-15.01c0.28-3.78,5.48-3.62,6.45-6.99c1.58-4.15,0.76-8.67-1.23-12.52c-1.47-2.31,1.52-3.85,3.31-4.49   c2.57-1.13,5.34,0.8,7.92-0.04c2.67-1.33,1.29-4.46,1.55-6.76c0.42-1.85,1.29-4.19,3.41-4.59   C233.63,339.99,236.07,342.12,238.85,341.75z"/>
	<path fill="#E96630" stroke="#E96630" stroke-width="0.0938" d="M253.78,339.73c7.83-3.8,16.7-5.04,25.34-4.4   c-1.88,3.34-3.57,6.87-5.98,9.84c-3.03,1.12-6.31,2.04-8.5,4.59c-4.77,4.9-4.93,12.55-3.01,18.75   c3.48,10.83,12.2,19.76,22.73,23.95c6.31,2.45,14.15,3.04,19.89-1.12c3.41-2.38,5.3-6.35,5.9-10.38c3.35-2.61,6.65-5.3,10.25-7.55   c1.9,10.73,0.12,22.16-5.59,31.51c-6.53,11.15-18.14,19.05-30.84,21.3c-15.06,2.93-31.32-2.29-42.08-13.17   c-10.62-10.48-15.87-26.33-12.96-41.04C231.44,358.11,240.96,345.69,253.78,339.73z"/>
	<path fill="#E96630" stroke="#E96630" stroke-width="0.0938" d="M322.58,338.48c3.02,0.77,6.13,1.98,9.31,0.79   c-15.28,15.55-30.48,31.19-45.84,46.66c-1.73-0.53-3.47-1.02-5.2-1.51C294.63,368.99,308.63,353.76,322.58,338.48z"/>
	<path fill="#E96630" stroke="#E96630" stroke-width="0.0938" d="M359.02,344.15c2.81-2.41,7.08-1.89,9.6-4.76   c1.68,8.93-3.46,17.67-10.88,22.35c-9.74,6.03-21.6,7.48-32.83,7.9C336.41,361.32,347.67,352.67,359.02,344.15z"/>
	<path fill="#E96630" stroke="#E96630" stroke-width="0.0938" d="M344.89,373.48c13.29-4.19,28.03-5.36,41.38-0.77   c8.35,3.11,16.03,8.61,20.96,16.11c4.44,6.67,5.26,15.75,1.36,22.85c-4.79,9.09-14.8,14.27-24.7,15.6   c-12.93,2.01-25.65-2.38-37.65-6.69c-6.33-2.52-12.86-5.26-17.81-10.08c-2.55-2.2-2.16-6.64,0.53-8.54   c2.58-1.87,5.86-2.2,8.93-2.66c13.64-1.29,27.38,0.4,41.03-0.73c2.24-0.46,5.24-0.09,6.53-2.42c-5.54-2.33-11.62-2.69-17.53-3.22   c-8.97-0.61-17.96-0.46-26.93-0.24c-5.21-0.08-10.94,0.38-15.44-2.76c-0.25-1.99-0.16-4,0.5-5.91   C331.18,378.78,338.03,375.74,344.89,373.48z"/>
	<path fill="#E96630" stroke="#E96630" stroke-width="0.0938" d="M323.23,422.36c3.14-4.24,9.11-3.25,13.65-2.67   c15.87,3.04,30.79,10.75,42.69,21.65c10.5,9.42,17.38,22.71,18.65,36.79c-0.53,2.23-0.54,4.53,0.03,6.75   c-0.83,8.89-5.3,17.73-13.23,22.25c-10.02,6-22.71,4.69-32.95-0.03c7.04,6.4,14.48,12.37,22.25,17.87c0.28-3.8199,2-7.4,5.14-9.67   c7.17-6.3,17.37-5.19,26.2-5.15c-0.9,8.11-5.4,15.56-11.72,20.64l1.49,0.03c-2.75,0.64-5.48,1.34-8.19,2.08   c10.52,6.47,22.19,11.14,34.21,13.98c0.51-0.33,1.51-1,2.02-1.33c0.54,0.78,1.08,1.55,1.63,2.34c6.59,0.95,13.25,2.43,19.94,1.98   c7.86-3.06,14.81-8.2,22.93-10.67l0.25,0.95c-7.12,2.66-13.66,6.6-20.38,10.09c3.26,0.03,6.52-0.06,9.79-0.08   c3.16,0.66,6.29,1.47,9.48,2.02c-7.96,1.47-16.08,1.84-24.16,1.47c-4.08-0.37-7.85,2.05-11.93,1.5699   c-3.52-0.12-5.46-3.9-8.96-4.11c-22.06-3.96-42.96-13.58-60.63-27.3c3.96,10-0.78,20.31-3.14,30.05c-3.64-1.47-7.1-3.44-9.85-6.27   c-4.25-4.25-8.54-9.26-9.16-15.4901c-0.71-6.71,2.94-12.99,7.52-17.6c0.04,11.44,3.83,22.48,8.89,32.61   c-3-10.72-7.61-21.42-5.98-32.81c-7.96-7.06-15.57-14.52-22.66-22.44c3.02,8.41,5.22,17.16,5.75,26.1   c1.01,14.81-3.09,29.97-11.57,42.15c-6.04,8.68-15.66,15.27-26.41,15.89h-3.61c-9.53-0.63-18.38-5.51-24.9-12.33   c-10.15-10.55-15.12-25.09-16.48-39.45c-0.12-7.15,0.02-14.29,0.01-21.44c0.53-9.73,1.56-19.47,3.91-28.94   c1.24-4.71,2.77-9.45,5.58-13.48c2.54-4.09,8.91-4.29,12.18-0.99c3.91,3.97,5.73,9.42,7.53,14.57c5.76,17.65,8.5,36.14,14.29,53.79   c1.16,3.13,2.22,6.55,4.77,8.86c2.33-1.02,1.59-4.4901,1.83-6.61c-1.07-19.11-6.13-37.68-11.15-56.05   c-1.47-5.92-3.28-11.85-3.5-17.98c0.05-2.49,0.45-5.43,2.65-6.96c2.89-1.9,6.74-1.32,9.52,0.49c6.67,4.18,11.71,10.42,16.23,16.75   c1.48,2.17,3.42,3.96,5.39,5.68c-4.09-7.3-8.28-14.78-9.9-23.08c-0.46-2.79-1.04-6.21,1.38-8.3c2.5-2.86,6.74-2.61,9.85-0.97   c7.78,3.78,14.3,9.61,20.86,15.15c6.54,5.5,12.92,11.17,19.62,16.48c3.46,2.51,6.95,5.54,11.4,5.98c-0.88-2.45-2.16-4.74-3.87-6.69   c-10-12-22.3-21.75-34.36-31.56c-3.78-3.24-7.87-6.31-10.59-10.55C322.3,426.6,321.73,424.11,323.23,422.36 M399.95,514.21   c-7.43,4.54-14.21,10.77-23.09,12.28c0.66,0.6,1.33,1.21,2.01,1.82C386.86,525.37,393.97,520.18,399.95,514.21 M428.81,552.31   c2.11,1.66,4.82,1.72,7.35,1.16C433.77,552.73,431.29,552.43,428.81,552.31z"/>
	<path fill="#E96630" stroke="#E96630" stroke-width="0.0938" d="M202.19,441.33c4.61-1.57,9.34-3.25,14.26-3.35   c2.04,0.11,4.09,0.1,6.14,0c2.88,0.08,5.45,2.1,7.08,4.36c2.16,4.46-1.41,8.93-3.93,12.39c-15.44,18.52-34.65,34.51-45.23,56.63   c-1.44,3.05-2.75,6.29-2.5,9.74c2.95,0.04,5.2-2.0099,7.28-3.8199c13.53-12.49,23.43-28.16,33.72-43.27   c5.01-6.9,9.68-14.48,16.96-19.23c3.69-2.58,9.28-2.68,12.45,0.81c4.19,4.32,3.71,10.91,3.53,16.47   c-1.37,14.4-6.91,27.98-12.96,40.97c-5.95,12.89-13.65,25.25-24.47,34.62c-10.8,9.47-24.94,16.06-39.55,15.13   c-10.83-0.61-21.31-6.2401-27.38-15.3c-7.6-11.16-8.65-25.5-6.54-38.5c2.19-16.04,10.55-30.73,21.79-42.18   C173.89,455.59,187.46,446.87,202.19,441.33z"/>
	<path fill="#E96630" stroke="#E96630" stroke-width="0.0938" d="M478.23,454.25c9.51-4.64,21.68-3.12,29.77,3.71   c5.95,5.09,9.61,12.35,11.72,19.79c-0.64,1.64-1.27,3.28-1.9,4.92c-2.87-7.17-9.12-12.92-16.66-14.79   c-5.92-1.85-12.3,0.19-18.18-1.81c-3.87-1.16-7.18-3.63-11.02-4.84c-2.24,0.79-3.13,3.16-3.76,5.24   c-1.29,5.23-0.61,11.22,2.88,15.49c3.16,4.01,8.5,5.44,11.6,9.51c2.24,2.77,3.69,6.81,1.97,10.2c-2.1,3.51-6.19,4.88-9.51,6.92   c1.34-4.53,2.56-9.1,3.94-13.61c-1.8-3.97-6.26-5.9-8.27-9.79c-3.95-5.61-4.55-12.86-2.89-19.38   C469.35,460.6,473.46,456.55,478.23,454.25z"/>
	<path opacity="0.24" fill="#3B2F2A" stroke="#3B2F2A" stroke-width="0.0938" enable-background="new    " d="M156.77,41.85   c-1.52-2.06-1.56-4.73-0.03-6.8C157.34,37.29,157.32,39.6,156.77,41.85z"/>
	<path fill="#FEFEFE" stroke="#FEFEFE" stroke-width="0.0938" d="M291.26,61.38c7.39-2.28,15.37,3.16,17.11,10.43   c2.51,7.82-2.94,17.41-11.35,18.22c-8.05,1.13-15.38-6.09-15.65-13.94C280.85,69.7,284.99,63.13,291.26,61.38z"/>
	<path fill="#FEFEFE" stroke="#FEFEFE" stroke-width="0.0938" d="M425.78,199.72c2.23-1,4.46,0.25,6.42,1.26   c2.99-1.99,6.74-1.92,9.47,0.51c1.45,0.06,2.93,0.1,4.38,0.31c-1.42-0.07-2.83-0.12-4.24-0.16c0.79,2.53,1.35,5.21,2.89,7.42   c4.91,7.26,9.68,14.6,14.53,21.9c2.21-0.26,4.41-0.5,6.63-0.77c0.61,0.18,1.82,0.53,2.43,0.71c1.46,0.21,2.94,0.4,4.41,0.61   c1.19,0.2,2.37,0.47,3.54,0.79c0.93,0.66,3.74,0.98,2.64-0.93c-0.41-0.11-1.24-0.33-1.66-0.44l0.55-0.73   c0.32,0.19,0.95,0.56,1.27,0.75c0.22,0.95,0.45,1.91,0.68,2.88c1.54,0.87,3.09,1.74,4.58,2.72c4.04,2.99,7.24,6.95,10.05,11.08   c1.56,3.32,1.65,7.52,5.14,9.61c-0.26,2.19-1.31,4.25-1.27,6.46c1.08,1.88,3.08,3.3,3.56,5.47c-0.68,2.86-3.59,4.39-4.93,6.9   c0.46,3.38,5.89,6.02,3.63,9.45c-2.95,1.36-7.18,0.85-8.99,4.04c-0.83,1.99-0.7,4.23-0.97,6.34c-3.21,0.19-6.4-0.15-9.6-0.07   c-2.18,0.69-2.97,3.34-4.92,4.48c-2.18-0.3-4.11-1.44-6.15-2.18c-3.46-1.79-7.08,2.92-10.39,0.44c-3.06-2.02-6.63-2.88-10.25-2.19   c-0.83-1.66-1.79-3.28-3.46-4.2c-6.02-3.91-10.45-9.99-12.81-16.73c-0.48,0.49-0.95,0.99-1.41,1.5l-0.14-1.6   c0.34-0.03,1.04-0.08,1.38-0.11c-0.49-2.11-0.88-4.24-1.64-6.27c-0.29-0.07-0.86-0.21-1.15-0.28c-0.66-0.42-1.26-0.91-1.81-1.47   c0.5-0.62,0.99-1.25,1.46-1.89c0.08,1.03,0.24,2.49,1.47,2.8c0.27-1.66,0.12-3.27-0.45-4.84c0.67-1.94,1.08-3.96,1.49-5.97   c-1.76-1.23-3.53-2.46-5.31-3.63c0.09,0.23,0.27,0.67,0.36,0.9c-4.93-4.69-10.97-8.35-17.58-10.18l-0.05-1.35   c-3.12-0.26-6.91-1.11-7.97-4.53c-1.36-2.93,0.93-5.64,2.28-8.05c-2.3,0.1-4.59,0.18-6.88,0.35c2.09-0.35,4.22-0.42,6.35-0.46   c-1.37-3.87,0.6-7.78,4.16-9.53c-1.23-4.38,1.98-8.75,6.43-9.16c0.49-3.81,3.25-6.92,7.19-7.23   C422.25,202.54,423.44,200.31,425.78,199.72 M427.36,200.4c-4.99,0.06-7.24,7.78-2.6,10.07c2.09-2.47,4.75-4.31,8.14-4.05   C432.91,203.33,430.83,199.95,427.36,200.4 M432.97,201.83c0.76,1.75,1.01,3.64,1.08,5.53l1.06,0.03c0.66,1.34,1.51,2.57,2.26,3.87   c4.5-1.08,5.81-6.92,2.44-10.03C437.5,200.17,435.07,200.55,432.97,201.83 M416.37,214.68c1.28-2.26,3.33-3.85,5.72-4.79   c-0.46-1.43-0.91-2.89-1.32-4.33C416.36,205.86,413.51,211.01,416.37,214.68 M426.17,210.75c2.23,1.93,3.25,4.65,2.88,7.58   c2.3,0.04,5.05-0.07,6.28-2.4c2.34-3.22-0.06-8.83-4.37-8.13C428.81,207.56,427.46,209.37,426.17,210.75 M442.44,207.88   c-0.64,1.06-1.26,2.13-1.84,3.22c1.06,1.02,2.31,1.89,3.2,3.09c0.75,2.05,0.21,4.57,1.86,6.25c4.4,5.49,8.88,10.92,13.29,16.41   l-0.15,1.7c-5.2-5.9-9.72-12.43-15.23-18.03c-0.88,0.98-1.77,1.96-2.68,2.92c7.31,8.63,14.85,17.07,22.17,25.69l-1.63,0.27   c-7.06-7.83-14.21-15.58-21.18-23.49c-0.17,0.63-0.5,1.9-0.66,2.53l-0.83,0.58c0.19-1.64-0.2-3.24-0.65-4.8   c-1.39-0.39-2.76-0.83-4.11-1.3c-0.96,1.39-1.7,3.07-3.32,3.83l0.29-1.2c1.4-1.62,1.93-3.75,2.19-5.83   c-1.44-0.15-2.87-0.26-4.3-0.32c-1.38,0.95-2.52,2.23-3.6,3.5c0.43,1.54,0.95,3.06,1.38,4.61c0.07,0.17,0.21,0.52,0.28,0.7   c-1.71,2.76-4.04,5.17-7.36,5.74c0.9,2.09,1.32,4.57,3.17,6.1l-1.01,0.61l-1.08-0.09c1.04,2.09,3.1,3.31,4.81,4.78   c7.09,5.86,14.2,11.7,21.27,17.6v1.5c-8.9-6.92-17.6-14.11-26.2-21.4c-1.16,0.96-2.33,1.9-3.43,2.92   c7.6,5.36,15.44,10.37,23.1,15.64l0.3,1.27c-1.8-1.14-3.65-2.2-5.47-3.28c-1.95,11.76,3.43,24.51,13.85,30.56   c12.19,7.66,29.52,4.4,38.43-6.8c9.1-10.55,9.67-27.45,0.85-38.34c-6.19-8.07-16.71-12.15-26.74-10.99   c0.24,0.44,0.72,1.31,0.96,1.75l-1.34-0.09C454.82,226.43,448.84,217.01,442.44,207.88 M420.15,212.09   c-3.6,1.94-3.66,7.87,0.19,9.55c4.13,2.13,9.16-3.01,7.22-7.12C426.53,211.56,422.73,210.29,420.15,212.09 M437.91,211.7   c-0.53,2.51-1.39,4.95-3.36,6.7c-1.56,1.15-0.56,3.53,1.11,3.93c3.45,2.11,8.11-1.57,7.54-5.37   C443.49,213.87,440.46,212.28,437.91,211.7 M412.03,213.14c-3.34,1.07-4.84,5.64-2.78,8.5c1.02,1.68,3.15,1.78,4.84,2.37   c1.1-1.01,2.21-2.01,3.34-3c-0.8-2.07-1.21-4.28-2.14-6.29C414.79,213.52,413.38,212.01,412.03,213.14 M405.76,231.59   c1.4-3.33,4.32-6.2,8.21-5.72l0.02-0.72c-2.48-0.2-4.52-1.59-6.21-3.32C404.1,223.58,402.34,228.65,405.76,231.59 M418.04,221.89   c-2.86,1.71-4.47,5.55-2.39,8.46c2.02,3.29,7.33,2.46,8.88-0.85c1.29-1.99,0.43-4.38-0.49-6.32   C421.95,223.19,419.92,222.77,418.04,221.89 M407.59,230.79c-1.81,3.57,2.19,8.34,6.04,6.87c1.97-0.54,3.08-2.31,4.24-3.82   c-2.43-1.58-4.32-3.8-4.47-6.82C410.92,227.01,408.34,228.29,407.59,230.79 M404.18,231.59c-1.03,2.25-2.52,4.82-1.15,7.28   c0.83,2.27,3.45,2.6,5.53,2.8c0.03-0.88,0.09-2.63,0.11-3.5C406.64,236.31,406.44,233.19,404.18,231.59 M409.64,238.93   c0.2,2.13,0.53,4.87,2.9,5.72c2.95,1.51,6.42-0.77,7.46-3.61c0.58-2.11-0.4-4.09-1.31-5.91   C416.44,237.87,413.31,239.78,409.64,238.93z"/>
	<path fill="#FEFEFE" stroke="#FEFEFE" stroke-width="0.0938" d="M320.22,278.17c0.27,2.09,0.39,4.19,0.44,6.3   c5.28-2.95,12.69-0.4,14.68,5.42c6.47-2.8,14.59,1.93,14.85,9.09c5.95-0.55,11.54,4.23,11.75,10.23c2.29,0.81,4.71,1.71,6.24,3.71   c3.12,3.49,3.2,9.29-0.15,12.67c3.59,3.61,4.61,10.1,0.59,13.8c-2.52,2.87-6.79,2.35-9.6,4.76c-11.35,8.52-22.61,17.17-34.11,25.49   c1,4.69,2.03,9.6,1.14,14.38c-0.66,1.91-0.75,3.92-0.5,5.91c0.16,1.95-0.63,3.82-0.92,5.74c0.26,0.27,0.76,0.81,1.01,1.09   c-0.44,0.09-1.32,0.27-1.76,0.36c-0.47,1.61-0.96,3.22-1.58,4.79c-1.01,2.38-2.28,4.65-3.65,6.85   c-3.41,5.47-7.93,10.19-13.17,13.93c-1.59,0.87-2.07,2.59-2.52,4.22c-4.46-0.47-8.43,1.72-12.42,3.31   c-0.71,1.3-0.75,3.48-2.59,3.71c-3.05,0.03-5.87-1.44-8.9-1.53c-3.58,1.8-5.69,6.26-9.99,6.63c-5.07,0.24-5.74-8.32-11.08-7.01   c-3.86,2.19-6.06,7.42-11.05,7.4c-4.73-2.15-2.53-8.94-5.82-12.43c-2.65-4.1-7.91-2.67-11.97-3.25c-2.54-0.67-1.98-3.9-1.74-5.85   c0.25-3.48,1.94-7.6-0.77-10.52c-1.85-2.62-6.03-2.74-7.25-5.79c0.49-4.12,4.83-7.16,4.33-11.58c-0.38-4.42-3.63-7.82-4.81-11.98   c1.21-1.8,3.1-3.05,4.26-4.87c0.96-2.96,1.89-6.2,0.97-9.28c-0.21-1.44-1.29-3.2,0.24-4.3c1.09-0.47,2.21-0.89,3.35-1.25   c5.81-11.18,15.46-20.42,27.32-24.87c2.49-1,5.06-1.76,7.67-2.4c4.01-0.87,8.12-1.19,12.22-1.13c2.39,0.01,4.76,0.27,7.12,0.64   c5.31-8.57,10.39-17.29,15.38-26.04c0.19-3.55,1.53-6.8,2.4-10.21l-0.03,0.03c-0.02,0.52-0.08,1.55-0.11,2.07   c0.92-0.71,1.83-1.42,2.76-2.12c-0.43-2.75-0.28-5.54,0.83-8.12c2.03-2.24,4.56-4.43,7.77-4.4c3.6-0.49,6.6,1.8,9.46,3.59   C320.44,282.96,320.38,280.56,320.22,278.17 M307.95,284.19c-3.5,1.55-4.48,5.61-4.04,9.1c1.92-0.14,3.84-0.24,5.77-0.32   c1.8-2.29,4.29-3.88,7.2-4.34c0.54-0.87,1.09-1.75,1.64-2.62C315.6,283.65,311.46,282.19,307.95,284.19 M318.68,288.6   c4.08,0.53,8.19,3.22,9.16,7.41c0.52,1.53-0.13,3.98,2.04,4.34c-0.15-3.76,1.39-7.32,4.3-9.71   C331.89,284.28,322.33,282.57,318.68,288.6 M315.77,290.51c-4.6,1.01-7.28,6.61-5.1,10.81c1.11,2.79,3.91,4.2,6.51,5.31   c1.81-3.88,5.23-7.02,9.72-7.12C327.11,293.81,321.36,288.82,315.77,290.51 M335.06,292.13c-2.95,1.84-3.58,5.42-3.1,8.62   c1.67,1.28,3.14,2.8,4.42,4.47c2.16-1.52,4.61-2.42,7.25-2.57c1.58-1.31,3.29-2.44,4.97-3.61   C348.5,292.56,340.33,288.34,335.06,292.13 M300.38,298.39c-2.9,4.43,0.12,10.71,5.02,12.05c3.45,1.35,7.13-0.36,9.5-2.91   c-4.72-2.21-7.94-7.68-6.01-12.82C305.66,294.47,302.04,295.31,300.38,298.39 M319.4,311.74c1.99,5.83,10.19,7.5,14.44,3.14   c-0.79-3,0.35-5.85,1.15-8.69c-1.67-3.29-5.4-5.42-9.09-4.99C321,301.66,317.48,307.13,319.4,311.74 M345.64,302.34   c3.19,2.39,7.47,4.55,7.6,9.16c2.27-1.11,4.62-2.06,7.09-2.63c-0.4-3.92-3.37-7.56-7.37-8.08   C350.4,300.25,347.95,301.39,345.64,302.34 M341.43,304.53c-5.04,0.78-8.12,7.04-5.35,11.41c2.74,5.9,12.45,6.27,15.1,0.11   C354.24,310.08,347.67,302.91,341.43,304.53 M269.94,354.03c-0.98,1.47-1.41,3.2-1.69,4.93c11.82-15.7,23.04-31.87,34.68-47.71   c-1.75-1.4-3.33-3-4.49-4.93C288.74,322.1,279.52,338.18,269.94,354.03 M309.33,312.48c-3.61,4.91-0.28,12.38,5.71,13.17   c4.04,1.38,5.9-3.15,8.84-4.88c2.24-2.42-1.86-3.07-3.17-4.5c-2.41-1.56-2.38-4.84-4.11-6.79   C313.99,309.76,311.99,312.08,309.33,312.48 M352.76,315.55c4.6,1.93,7.66,6.56,7.19,11.6c5.81,0.64,11.19-5.67,8.33-11.15   C365.79,309.56,355.45,308.97,352.76,315.55 M305.23,312.24c-12.86,17.07-25.25,34.54-37.94,51.76c0.25,0.8,0.74,2.4,0.98,3.2   c13.02-15.27,25.87-30.68,38.73-46.09c-1.48-2.99-0.61-6.22,0.35-9.21C306.82,311.98,305.76,312.15,305.23,312.24 M328.02,319.38   c0.49,2.38,0.94,4.99,2.86,6.69c2.41,2.43,6.08,2.92,9.28,2.06c-0.13-2.25-0.19-4.5-0.21-6.74c-2.33-1.02-4.08-2.85-5.58-4.84   C332.43,317.85,330.26,318.75,328.02,319.38 M352.47,317.27c-2.28,3.63-6.49,5.48-10.72,4.76c-1.11,4.09,0.95,8.76,5,10.29   c4.58,2.35,11.22-0.91,11.33-6.27C358.71,322.15,355.91,318.71,352.47,317.27 M325.98,319.13   C324.42,322.17,329.26,319.16,325.98,319.13 M319.83,330.92c0.54,6.23,8.88,9.39,13.65,5.6c0.51-2.07,0.75-4.25,2.05-6.02   c-4.12-1.46-7.69-4.35-8.89-8.69C322.5,322.65,318.85,326.47,319.83,330.92 M308.57,324.13c-13.17,15.86-26.65,31.48-40.12,47.1   c1.07,1.8,2.15,3.61,3.56,5.18c14.64-16.28,29.38-32.53,43.67-49.13C312.97,327.11,310.77,325.52,308.57,324.13 M359.27,328.78   c-1.36,2.61-3.63,4.49-6.3,5.65c1.17,2.56,2.97,5.02,5.8,5.86c4.32,1.84,9.9-1.01,10.77-5.68c0.76-2.87-0.8-5.59-2.47-7.79   C364.62,327.99,362,328.72,359.27,328.78 M273.67,378.74c1.64,1.43,3.27,2.86,4.91,4.29c13.97-15.58,28.2-30.91,42.19-46.45   c-1.84-2.29-2.86-5.07-2.96-8C303.19,345.38,288.18,361.85,273.67,378.74 M336.32,339.64c2.47,5.13,10.5,6.27,14.08,1.75   c1.65-1.77,1.69-4.26,1.69-6.53c-4.47,0.12-8.64-1.85-11.24-5.51C335.83,329.54,333.98,335.81,336.32,339.64 M253.78,339.73   c-12.82,5.96-22.34,18.38-24.85,32.28c-2.91,14.71,2.34,30.56,12.96,41.04c10.76,10.88,27.02,16.1,42.08,13.17   c12.7-2.25,24.31-10.15,30.84-21.3c5.71-9.35,7.49-20.78,5.59-31.51c-3.6,2.25-6.9,4.94-10.25,7.55c-0.6,4.03-2.49,8-5.9,10.38   c-5.74,4.16-13.58,3.57-19.89,1.12c-10.53-4.19-19.25-13.12-22.73-23.95c-1.92-6.2-1.76-13.85,3.01-18.75   c2.19-2.55,5.47-3.47,8.5-4.59c2.41-2.97,4.1-6.5,5.98-9.84C270.48,334.69,261.61,335.93,253.78,339.73 M322.58,338.48   c-13.95,15.28-27.95,30.51-41.73,45.94c1.73,0.49,3.47,0.98,5.2,1.51c15.36-15.47,30.56-31.11,45.84-46.66   C328.71,340.46,325.6,339.25,322.58,338.48 M353.43,338.78c-1.18,5.06-6.51,7.62-11.37,7.29c-13.9,12.93-28.3,25.35-41.85,38.63   c1.61-0.47,3.34-0.79,4.71-1.84c18.06-13.39,35.84-27.18,54.06-40.36C357.11,341.28,355.26,340.05,353.43,338.78 M289.35,385.75   c1.8,0.45,3.61,0.91,5.42,1.34c15-13.92,29.89-27.99,45.12-41.67c-1.74-1.46-3.41-2.98-4.97-4.61   C319.81,355.87,304.31,370.55,289.35,385.75z"/>
	<path fill="#E75417" stroke="#E75417" stroke-width="0.0938" d="M365.55,67.84c0.72,3.78,0.64,7.68-0.04,11.45   C365.13,75.49,365.18,71.65,365.55,67.84z"/>
	<path fill="#E75417" stroke="#E75417" stroke-width="0.0938" d="M165.3,169.19c-0.3-5.44-0.81-11.01,0.23-16.39   C165.66,158.25,166.04,163.77,165.3,169.19z"/>
	<path opacity="0.43" fill="#653A28" stroke="#653A28" stroke-width="0.0938" enable-background="new    " d="M525.27,102.65   c0.28-0.7,1.41-2.17,1.91-0.72c0.51,1.37-0.05,2.89-1.06,3.86C525.81,104.75,525.53,103.7,525.27,102.65z"/>
	<path fill="#E75A1E" stroke="#E75A1E" stroke-width="0.0938" d="M469.1,112.97c7.51-5.44,17.93-6.64,26.25-2.33   c8.11,4.02,13.62,12.55,14.64,21.45c0.17,3.69,0.38,7.4,0.19,11.11c-0.13,0.48-0.39,1.44-0.52,1.92c-0.64-1.33-1.27-2.66-1.8-4.03   c1.16-9.64-2.39-19.6-9.49-26.23l0.01-0.24c-0.26-0.13-0.78-0.4-1.04-0.53c-8.48-5.58-20.21-5.64-28.24,0.81V112.97z"/>
	<path opacity="0.65" fill="#9B5436" stroke="#9B5436" stroke-width="0.0938" enable-background="new    " d="M479.92,111.45   c2.24-1.02,4.76-0.99,6.97,0.12C484.63,112.51,482.13,112.5,479.92,111.45z"/>
	<path opacity="0.83" fill="#C05626" stroke="#C05626" stroke-width="0.0938" enable-background="new    " d="M469.09,116.34   c2.93-2.84,6.87-4.22,10.83-4.89c2.21,1.05,4.71,1.06,6.97,0.12c4.02,0.64,7.67,2.57,10.86,5.05c-0.06,1.48,1.3,2.1,2.37,2.84   c3.88,4.17,5.87,9.92,6.04,15.57c-0.23,1.62-0.23,3.27-0.06,4.9c-0.03,2.55-0.7,5.01-1.35,7.44c-0.63-1.03-1.28-2.05-1.94-3.05   c2.18-7.83,1.02-16.7-3.99-23.22c-5.26-6.99-15.27-10.07-23.43-6.71c-5.66,1.86-9.68,6.77-11.6,12.26   c-1.64,3.05-2.04,6.9,0.03,9.86c1.78,4.37,5.02,7.87,9.27,9.92c1.72,2.25,4.74,1.99,6.72,0.24c2.74-1.34,5.88-2.53,7.51-5.31   c3.59-5.14,1.92-14.14-4.79-15.73c0.7-0.17,2.11-0.5,2.81-0.67l0.03-1.15c-3.27,0.46-6.67,0.89-9.55,2.63   c-2.29,1.97-2.93,4.98-3.56,7.79c-0.06-2.41-0.58-5.08,0.97-7.16c1.38-2.44,4.01-3.66,6.57-4.45c0.84,0.01,2.54,0.03,3.38,0.04   c4.58,0.83,8.08,4.58,9.19,9c-0.33,0.49-0.99,1.46-1.31,1.95c-0.06-2.75-1.03-5.9-3.8-7.04l0.15-0.47l-0.49-0.4l-0.47-0.49   c-0.05,0.21-0.14,0.62-0.18,0.83l0.65-0.34l-0.12,0.52l0.46,0.35c3.44,3.78,2.98,8.95,2.95,13.67l-0.97,0.19   c-0.15,0.45-0.46,1.35-0.61,1.8c-0.12,0.15-0.38,0.46-0.5,0.62c-0.48,0.61-0.48,0.61,0,0c0.12-0.16,0.38-0.47,0.5-0.62   c0.39-0.5,1.18-1.5,1.58-1.99c0.28-1.35,0.54-2.71,0.75-4.07c0.34,0.72,1,2.17,1.33,2.89c-1.62,5.19-6.16,9-11.37,10.27   c-2.26-0.61-4.6-0.61-6.85-0.01c-7.28-1.66-12.33-8.22-13.46-15.4c0.74-2.23,0.73-4.6,0-6.83c0.82-4.92,3.33-9.43,6.85-12.92   c0.36,1.89-1.06,3.45-1.71,5.11c-0.11,0.12-0.34,0.37-0.46,0.5c-0.3,0.55-0.91,1.65-1.22,2.21c-0.33,0.27-0.98,0.83-1.3,1.11   l0.31,0.72l0.75-0.08c0.06-0.44,0.18-1.32,0.24-1.75l0.82-0.46c0.1-0.44,0.3-1.31,0.4-1.75c0.12-0.13,0.35-0.38,0.46-0.5   C466.84,118.29,467.98,117.32,469.09,116.34 M485.22,145.21C485.72,145.77,485.72,145.77,485.22,145.21z"/>
	<path opacity="0.47" fill="#6E3821" stroke="#6E3821" stroke-width="0.0938" enable-background="new    " d="M467.46,114.17   c0.53-0.42,1.07-0.82,1.64-1.2v1.93c0,0.36-0.01,1.08-0.01,1.44c-1.11,0.98-2.25,1.95-3.34,2.94   C466.4,117.62,467.82,116.06,467.46,114.17z"/>
	<path fill="#E9632C" stroke="#E9632C" stroke-width="0.0938" d="M497.34,114.09c0.26,0.13,0.78,0.4,1.04,0.53l-0.01,0.24   c-0.31,1.79,0.28,3.32,1.75,4.6c-1.07-0.74-2.43-1.36-2.37-2.84C497.65,115.98,497.44,114.72,497.34,114.09z"/>
	<path fill="#E9632C" stroke="#E9632C" stroke-width="0.0938" d="M42.79,363.86c11.36-4.28,25.1,0.22,32,10.13   c8.35,11.83,6.95,29.31-3.09,39.73c-6.73,7.41-16.91,10.82-26.73,11.06c-14.97,0.31-29.79-7.64-37.72-20.36   c0.75-0.8,1.5-1.6,2.24-2.4c8.32,14.51,26.31,22.69,42.7,19.17c8.01-1.46,15.53-5.98,20.09-12.8c7.33-10.52,6.88-26.2-2-35.69   c-7.09-7.69-19.08-10.37-28.7-6.18c-5.18,2.23-9.14,6.9-10.71,12.29c-1.08,3.03-1.2,6.33-0.19,9.4c0.94,3.73,3.06,7.14,6.07,9.54   c0.1,0.46,0.28,1.37,0.38,1.82c-5.73-3.37-9.16-9.96-8.88-16.56C28.49,374.39,34.73,366.61,42.79,363.86z"/>
	<path opacity="0.25" fill="#3C2014" stroke="#3C2014" stroke-width="0.0938" enable-background="new    " d="M465.29,119.78   c0.12-0.13,0.35-0.38,0.46-0.5C465.64,119.4,465.41,119.65,465.29,119.78z"/>
	<path opacity="0.49" fill="#743820" stroke="#743820" stroke-width="0.0938" enable-background="new    " d="M464.07,121.99   c0.31-0.56,0.92-1.66,1.22-2.21c-0.1,0.44-0.3,1.31-0.4,1.75L464.07,121.99z"/>
	<path opacity="0.6" fill="#8B3F20" stroke="#8B3F20" stroke-width="0.0938" enable-background="new    " d="M462.77,123.1   c0.32-0.28,0.97-0.84,1.3-1.11c-0.06,0.43-0.18,1.31-0.24,1.75l-0.75,0.08L462.77,123.1z"/>
	<path opacity="0.36" fill="#584A44" stroke="#584A44" stroke-width="0.0938" enable-background="new    " d="M479.8,122.62   c0.86-1.18,2.53-1.18,3.38,0.04C482.34,122.65,480.64,122.63,479.8,122.62z"/>
	<path fill="#E86735" stroke="#E86735" stroke-width="0.0938" d="M511.96,133.48c1.08-3.78,3.67-6.95,4.89-10.71   c0.1801,3.9,0.95,8.29-1.59,11.64c-1.79,2.43-2.13,5.47-2.68,8.34c-0.39-2.01-0.61-4.06-0.73-6.1   C511.87,135.59,511.91,134.53,511.96,133.48z"/>
	<path opacity="0.4" fill="#603929" stroke="#603929" stroke-width="0.0938" enable-background="new    " d="M475.82,126.44   c2.88-1.74,6.28-2.17,9.55-2.63l-0.03,1.15c-0.7,0.17-2.11,0.5-2.81,0.67C480.27,125.73,478.03,125.99,475.82,126.44z"/>
	<path opacity="0.07" fill="#120F0E" stroke="#120F0E" stroke-width="0.0938" enable-background="new    " d="M486.27,126.04   c0.04-0.21,0.13-0.62,0.18-0.83l0.47,0.49L486.27,126.04z"/>
	<path opacity="0.4" fill="#5F3E30" stroke="#5F3E30" stroke-width="0.0938" enable-background="new    " d="M460.61,133.92   c-1.38-2.11-1.32-4.71,0-6.83C461.34,129.32,461.35,131.69,460.61,133.92z"/>
	<path fill="#E75114" stroke="#E75114" stroke-width="0.0938" d="M306.85,129.59c5.05-0.61,10.16-0.41,15.23-0.1   C317.05,130.33,311.9,130.14,306.85,129.59z"/>
	<path opacity="0.21" fill="#332B28" stroke="#332B28" stroke-width="0.0938" enable-background="new    " d="M552.59,130.71   c3.8199-0.99,7.7599-0.74,11.59,0.14C560.31,131.01,556.44,130.99,552.59,130.71z"/>
	<path opacity="0.21" fill="#332B28" stroke="#332B28" stroke-width="0.0938" enable-background="new    " d="M468.69,409.82   c3.16-0.91,6.43-0.93,9.59-0.03C475.08,409.91,471.89,409.91,468.69,409.82z"/>
	<path opacity="0.58" fill="#8B5038" stroke="#8B5038" stroke-width="0.0938" enable-background="new    " d="M492.37,131.66   c0.9,2.4,0.74,5.01-0.08,7.4c-0.33-0.72-0.99-2.17-1.33-2.89c0.02-0.86,0.05-1.71,0.1-2.56   C491.38,133.12,492.04,132.15,492.37,131.66z"/>
	<path opacity="0.42" fill="#654639" stroke="#654639" stroke-width="0.0938" enable-background="new    " d="M509.99,132.09   c0.49,0.34,1.48,1.04,1.97,1.39c-0.05,1.05-0.09,2.11-0.11,3.17c-0.46,2.2-1.07,4.37-1.67,6.55   C510.37,139.49,510.16,135.78,509.99,132.09z"/>
	<path fill="#E75A20" stroke="#E75A20" stroke-width="0.0938" d="M372.51,139.54c9.2-8.31,24.1-9.01,34.13-1.77   c-0.58,0.32-1.74,0.94-2.32,1.25c-5.27-3-11.42-4.76-17.5-3.8c-8.65,1.08-17.05,6.97-19.18,15.73c-0.59,2.64-0.61,5.39-0.16,8.05   c1.28,5.9,5.41,11.34,11.24,13.31c7.65,2.7,18.22-0.9,19.81-9.6c0.02-0.1,0.07-0.3,0.09-0.4c1.54-6.45-3.85-13.7-10.65-13.42   c-5.79-0.33-11.52,5.97-8.46,11.59c1.35,3.51,5.35,3.76,8.54,4.17c-2.55-0.11-5.53,0.59-7.55-1.38c-3.33-2.8-3.6-8.22-0.83-11.49   c2.8-3.68,7.97-4.86,12.28-3.49c0.27,0.11,0.81,0.32,1.08,0.43c5.7,2.6,8.42,9.61,6.59,15.51c-0.05,0.14-0.15,0.42-0.2,0.55   c-0.87,2.07-2.16,3.94-3.76,5.51c-0.09,0.07-0.26,0.23-0.35,0.31c-2.39,2-5.36,3.03-8.33,3.76c-1.91-0.78-4-0.77-5.9-0.03   c-6.5-1.19-11.94-6.04-14.18-12.2c-0.26-0.56-0.77-1.66-1.03-2.22c0.04-0.5,0.11-1.52,0.14-2.02c0.3-1.97,0.19-3.96-0.34-5.87   C366.59,147.29,368.81,142.72,372.51,139.54z"/>
	<path fill="#E75A20" stroke="#E75A20" stroke-width="0.0938" d="M358.14,202.37c4.5-2.26,10.46,1.55,10.01,6.63   c0.16,5.25-6.53,8.86-10.8,5.74C352.63,212.09,353.2,204.43,358.14,202.37 M359.42,204.64c-2.94,0.97-3.75,5.28-1.47,7.32   c2.16,2.55,6.9,1.23,7.54-2.05C366.6,206.53,362.62,203.05,359.42,204.64z"/>
	<path fill="#E75A20" stroke="#E75A20" stroke-width="0.0938" d="M146.76,217.3c-3.41-1.2-2.18-6.33,1.25-6.38   c2.81,0.35,3.49,3.34,2.91,5.71l-0.4-0.87l-0.21-0.46c-0.57-1.08-1.39-3.98-3.15-2.68c-2.34,0.18-0.34,2.74-0.47,4.03L146.76,217.3   z"/>
	<path fill="#E75A20" stroke="#E75A20" stroke-width="0.0938" d="M350.13,218.15c4.2-2.3,9.69,2.62,7.38,6.97   c-1.44,3.78-7.31,4.36-9.36,0.85C346.17,223.45,347.38,219.55,350.13,218.15 M351.28,220.06c-1.92,0.12-2.76,3.01-1.74,4.47   c1.03,2.37,4.86,2.42,6.02,0.13c1.22-1.51,0.17-4.62-1.84-4.66C354.38,218.16,350.52,218.26,351.28,220.06z"/>
	<path fill="#E75A20" stroke="#E75A20" stroke-width="0.0938" d="M147.93,225.98c0.14-5.61,7.83-8.53,11.77-4.59   c4.07,3.17,2.43,11.26-2.86,11.62c-1.21-0.15-2.42-0.12-3.61,0.09l-1.26,0.21C149.67,231.56,147.42,229.12,147.93,225.98    M153.28,222.38c-3.09,1.09-3.84,5.6-1.26,7.61c2.52,2.48,7.34,0.48,7.39-3.05C159.89,223.76,156.16,221.02,153.28,222.38z"/>
	<path fill="#E75A20" stroke="#E75A20" stroke-width="0.0938" d="M598.92,225.08c1.64-1.72,3.54-3.56,6.13-3.48   c4.36-0.32,8.2,4.1,7.16,8.38c-0.2401,2.15-1.97,3.58-3.35,5.05l-1.21-0.08c-1.47-0.14-2.94-0.01-4.38,0.11   c-2.12,0.02-4.38-2.18-4.32-4.31c0.1-1.45,0.24-2.91,0.08-4.36L598.92,225.08 M601,230.05c1.15,3.71,6.49,4.01,8.46,0.81l0.84,0.25   c-0.23-2.56,0.65-7.18-3.25-7.06C603.56,223.16,599.68,226.4,601,230.05z"/>
	<path fill="#E75A20" stroke="#E75A20" stroke-width="0.0938" d="M477.22,230.93c0.42,0.11,1.25,0.33,1.66,0.44   c1.1,1.91-1.71,1.59-2.64,0.93C476.49,231.95,476.98,231.27,477.22,230.93z"/>
	<path fill="#E75A20" stroke="#E75A20" stroke-width="0.0938" d="M99.4,258.42c3.81-1.59,8.22,2.61,6.87,6.52   c-0.77,3.46-5.39,5.2-8.2,2.99C94.44,265.74,95.3,259.56,99.4,258.42 M99.38,260.56c-2.44,1.24-2.1,5.41,0.56,6.17   c1.42,0.87,2.86-0.52,4.2-0.88l-0.17-1.07c1.73,0.58,1.72-3.12-0.01-2.46l0.17-1.16C102.63,260.63,100.92,259.35,99.38,260.56z"/>
	<path fill="#E75A20" stroke="#E75A20" stroke-width="0.0938" d="M145.91,271.12c1.3-3.76,7.03-4.5,9.27-1.22   c2.13,2.51,0.93,7.65-2.53,8.03c-1.12-0.04-2.24-0.01-3.34,0.1l-1.22,0.1C146.3,276.31,144.68,273.71,145.91,271.12 M149.15,270.12   c-1.52,1.07-2.31,3.3-1.11,4.91c1.42,2.56,5.83,1.75,6.17-1.16C155.05,270.99,151.62,268.81,149.15,270.12z"/>
	<path fill="#E75A20" stroke="#E75A20" stroke-width="0.0938" d="M301.75,278.84c0.3,0.07,0.91,0.22,1.21,0.3   c0.27,2.33,0.4,4.68,0.32,7.03c-1.11,2.58-1.26,5.37-0.83,8.12c-0.93,0.7-1.84,1.41-2.76,2.12c0.03-0.52,0.09-1.55,0.11-2.07   C300.86,289.23,301.78,284.07,301.75,278.84z"/>
	<path fill="#E75A20" stroke="#E75A20" stroke-width="0.0938" d="M41.26,299.94c7.07-6.43,14.71-12.19,22.51-17.71l1.74-0.28   c-3.23,3.33-7.28,5.68-10.96,8.47c-8.47,6.41-16.21,13.79-22.95,22.01c-1.34,1.6-2.32,3.47-3.07,5.41c-1.13,1.62-1,3.67,0.14,5.25   c0.92,2.22,2.14,4.31,3.75,6.12c-0.36,0.93-0.74,1.86-1.13,2.78c-1.93-2.42-3.54-5.08-4.62-7.98c0.8-1.96,0.7-4.11-0.11-6.04   c1.16-3.82,3.84-6.82,6.41-9.75C35.78,305.5,38.57,302.78,41.26,299.94z"/>
	<path fill="#E75A20" stroke="#E75A20" stroke-width="0.0938" d="M262.71,331.05c2.92-3.81,8.65-4.4,12.22-1.13   C270.83,329.86,266.72,330.18,262.71,331.05z"/>
	<path fill="#E75A20" stroke="#E75A20" stroke-width="0.0938" d="M35.41,402.43c2.53-1.49,5.67,1.81,4.39,4.37   c-1.01,1.15-2.66,2.63-4.22,1.55C32.95,407.51,32.83,403.41,35.41,402.43 M34.97,404.22c0,0.73,0.01,2.19,0.01,2.91   c1.43-0.03,3.3,0.34,3.88-1.39c0.4-1.25-1.32-1.76-1.91-2.61C36.45,403.4,35.46,403.95,34.97,404.22z"/>
	<path fill="#E75A20" stroke="#E75A20" stroke-width="0.0938" d="M435.21,449.24c3.63-1.47,8.16,1.69,7.6,5.7   c0.01,4.29-5.67,6.67-8.91,4.11C430.31,456.73,431.13,450.53,435.21,449.24 M435.36,451.35c-1.63,0.8-2.28,2.98-1.5,4.61   c0.94,2.67,5.21,2.9,6.47,0.33C442.38,453.34,438.33,449.33,435.36,451.35z"/>
	<path fill="#E75A20" stroke="#E75A20" stroke-width="0.0938" d="M413.67,461.84c1.37-3.8,6.82-5.05,9.68-2.17   c2.4,1.68,1.62,4.84,1.73,7.34c-1.58,1.68-3.41,3.79-6.01,3.36C415,470.45,411.71,465.51,413.67,461.84 M418.4,460.38   c-2.14,0.51-3.82,3.02-2.84,5.14c0.83,3.28,5.85,3.56,7.28,0.58C424.49,463.21,421.54,459.5,418.4,460.38z"/>
	<path fill="#E75A20" stroke="#E75A20" stroke-width="0.0938" d="M395.43,530.82c5.58,0.12,11.19,1.23,16.32,3.47   c5.11,2.2401,8.65,6.77,11.72,11.26c-0.51,0.33-1.51,1-2.02,1.33c-4.41-6.81-11.4-11.88-19.52-13.03c-1.7-1.4-3.93-1.5-5.92-0.71   c-2.93-0.06-5.85-0.15-8.77-0.24C389.95,532.16,392.68,531.46,395.43,530.82z"/>
	<path opacity="0.2" fill="#302B29" stroke="#302B29" stroke-width="0.0938" enable-background="new    " d="M506.16,135.03   c1.87,1.07,1.63,3.78-0.06,4.9C505.93,138.3,505.93,136.65,506.16,135.03z"/>
	<path fill="#E65113" stroke="#E65113" stroke-width="0.0938" d="M549.9,137.51c5.71-0.71,11.58-0.89,17.28,0.04   C561.43,137.93,555.65,137.86,549.9,137.51z"/>
	<path opacity="0.28" fill="#43291D" stroke="#43291D" stroke-width="0.0938" enable-background="new    " d="M489.24,140.43   l0.97-0.19c-0.4,0.49-1.19,1.49-1.58,1.99C488.78,141.78,489.09,140.88,489.24,140.43z"/>
	<path opacity="0.19" fill="#2D1F19" stroke="#2D1F19" stroke-width="0.0938" enable-background="new    " d="M488.13,142.85   c0.12-0.16,0.38-0.47,0.5-0.62C488.51,142.38,488.25,142.69,488.13,142.85z"/>
	<path opacity="0.31" fill="#482111" stroke="#482111" stroke-width="0.0938" enable-background="new    " d="M488.13,142.85   C487.65,143.46,487.65,143.46,488.13,142.85z"/>
	<path fill="#E75113" stroke="#E75113" stroke-width="0.0938" d="M338.5,157.08c-0.75-4.04-0.69-8.19-0.03-12.24   C338.89,148.9,338.85,153.01,338.5,157.08z"/>
	<path fill="#E75113" stroke="#E75113" stroke-width="0.0938" d="M47.85,331.49c4.73-0.75,9.56-0.79,14.29-0.04   C57.4,332,52.61,331.79,47.85,331.49z"/>
	<path opacity="0.47" fill="#6F331B" stroke="#6F331B" stroke-width="0.0938" enable-background="new    " d="M485.22,145.21   C485.72,145.77,485.72,145.77,485.22,145.21z"/>
	<path fill="#E96734" stroke="#E96734" stroke-width="0.0938" d="M546.05,148.74c2.12-2.26,5.22-5.67,8.53-3.36   c4.37,3.1,3.71,9.39,7.57,13.01c-3.73-1.83-5.4901-5.67-7.42-9.09C552.03,148.3,548.91,149.12,546.05,148.74z"/>
	<path opacity="0.47" fill="#704939" stroke="#704939" stroke-width="0.0938" enable-background="new    " d="M391.95,148.29   c0.27,0.11,0.81,0.32,1.08,0.43C392.76,148.61,392.22,148.4,391.95,148.29z"/>
	<path opacity="0.33" fill="#4F362B" stroke="#4F362B" stroke-width="0.0938" enable-background="new    " d="M474.07,149.32   c2.25-0.6,4.59-0.6,6.85,0.01C478.82,150.83,476.16,150.78,474.07,149.32z"/>
	<path fill="#FEFDFD" stroke="#FEFDFD" stroke-width="0.0938" d="M367.48,159c-0.45-2.66-0.43-5.41,0.16-8.05   C367.47,153.63,367.42,156.32,367.48,159z"/>
	<path fill="#FEFDFD" stroke="#FEFDFD" stroke-width="0.0938" d="M426.64,227.51c1.44-0.65,2.9-1.28,4.33-1.96l-0.29,1.2   c-0.91,0.6-1.84,1.17-2.77,1.73c1.22,1.89,2.47,4.49,5.12,4.37c2.59,0.14,4.35-1.93,5.73-3.83l0.83-0.58   c-0.3,1.48-1.08,3.34,0.54,4.38c8.96,9.09,17.74,18.36,26.76,27.4c0.43-1.09,0.87-2.18,1.31-3.26c-2.26-2.52-4.53-5.03-6.77-7.56   l1.63-0.27c1.72,1.94,3.44,3.88,5.29,5.71c0.31-1.22,0.53-2.45,0.64-3.69c-3.19-4.37-6.96-8.27-10.19-12.6l0.15-1.7   c3.14,3.45,5.49,7.66,9.27,10.49c-1.75-4.25-4.86-7.72-7.19-11.65l1.34,0.09c1.47,2.14,2.66,4.78,5.25,5.79   c3.15,1.27,5.77,3.95,6.22,7.43c1,7.37-3.57,14.3-9.15,18.69c-4.98,3.88-11.97,6.4-18.08,3.78c-3.57-1.47-4.71-5.37-6.12-8.59   l-0.3-1.27c3.02,2.08,5.88,4.46,9.3,5.86c-0.9-1.03-1.83-2.03-2.77-3.02v-1.5c2.75,1.94,4.98,5.29,8.69,5.23   c-9.05-9.41-18.81-18.13-28.28-27.13c-1.81-0.09-3.62-0.22-5.41-0.39l1.01-0.61c2.77,0.21,5.86-0.5,6.97-3.39   c1.8-3.22-2.26-5.46-2.78-8.45C426.85,228.03,426.71,227.68,426.64,227.51 M432.36,234.23c10.22,10.17,20.4,20.36,30.61,30.54   c1-1.09,2.01-2.17,3.02-3.26c-9.74-9.44-18.84-19.52-28.56-28.98C435.87,233.44,434.15,234,432.36,234.23 M431.42,235.47   c-0.61,1.52-1.42,2.94-2.52,4.15c9.5,9.58,19.44,18.72,29.04,28.2c1.17-0.68,2.34-1.35,3.52-2.03   C451.6,255.54,441.49,245.52,431.42,235.47z"/>
	<path opacity="0.31" fill="#4A342A" stroke="#4A342A" stroke-width="0.0938" enable-background="new    " d="M366.01,157.89   c-2.14-1.35-1.43-4.08-0.34-5.87C366.2,153.93,366.31,155.92,366.01,157.89z"/>
	<path opacity="0.49" fill="#744430" stroke="#744430" stroke-width="0.0938" enable-background="new    " d="M365.87,159.91   c0.26,0.56,0.77,1.66,1.03,2.22C366.64,161.57,366.13,160.47,365.87,159.91z"/>
	<path opacity="0.29" fill="#46352F" stroke="#46352F" stroke-width="0.0938" enable-background="new    " d="M398.53,162.71   c0.02-0.1,0.07-0.3,0.09-0.4C398.6,162.41,398.55,162.61,398.53,162.71z"/>
	<path opacity="0.49" fill="#764531" stroke="#764531" stroke-width="0.0938" enable-background="new    " d="M399.42,164.78   c0.05-0.13,0.15-0.41,0.2-0.55C399.57,164.37,399.47,164.65,399.42,164.78z"/>
	<path opacity="0.33" fill="#4F3227" stroke="#4F3227" stroke-width="0.0938" enable-background="new    " d="M395.31,170.6   c0.09-0.08,0.26-0.24,0.35-0.31C395.57,170.36,395.4,170.52,395.31,170.6z"/>
	<path opacity="0.51" fill="#794530" stroke="#794530" stroke-width="0.0938" enable-background="new    " d="M306.78,174.23   c1.44-0.04,2.99-0.56,4.37,0.11l1.08,0.42c0.71,0.14,2.14,0.43,2.86,0.57C312.26,176.59,309.22,176,306.78,174.23z"/>
	<path opacity="0.41" fill="#623F31" stroke="#623F31" stroke-width="0.0938" enable-background="new    " d="M381.08,174.33   c1.9-0.74,3.99-0.75,5.9,0.03C385.17,175.69,382.87,175.63,381.08,174.33z"/>
	<path opacity="0.81" fill="#BD5327" stroke="#BD5327" stroke-width="0.0938" enable-background="new    " d="M168.1,187.34   C171.38,187.55,166.53,190.34,168.1,187.34z"/>
	<path fill="#E96833" stroke="#E96833" stroke-width="0.0938" d="M427.36,200.4c3.47-0.45,5.55,2.93,5.54,6.02   c-3.39-0.26-6.05,1.58-8.14,4.05C420.12,208.18,422.37,200.46,427.36,200.4z"/>
	<path fill="#E96833" stroke="#E96833" stroke-width="0.0938" d="M412.03,213.14c1.35-1.13,2.76,0.38,3.26,1.58   c0.93,2.01,1.34,4.22,2.14,6.29c-1.13,0.99-2.24,1.99-3.34,3c-1.69-0.59-3.82-0.69-4.84-2.37   C407.19,218.78,408.69,214.21,412.03,213.14z"/>
	<path fill="#E96833" stroke="#E96833" stroke-width="0.0938" d="M431.42,235.47c10.07,10.05,20.18,20.07,30.04,30.32   c-1.18,0.68-2.35,1.35-3.52,2.03c-9.6-9.48-19.54-18.62-29.04-28.2C430,238.41,430.81,236.99,431.42,235.47z"/>
	<path fill="#E45215" stroke="#E45215" stroke-width="0.0938" d="M432.97,201.83c2.1-1.28,4.53-1.66,6.84-0.6   c-1.58,0.57-3.24,0.84-4.88,1.08c0.02,1.69,0.06,3.39,0.18,5.08l-1.06-0.03C433.98,205.47,433.73,203.58,432.97,201.83z"/>
	<path fill="#E65012" stroke="#E65012" stroke-width="0.0938" d="M634.28,202.72c2.7,2.27,1.34,6.22,1.74,9.29   c-0.34,3.09,0.99,7-1.65,9.35C635.15,215.17,635.11,208.9,634.28,202.72z"/>
	<path fill="#E96A37" stroke="#E96A37" stroke-width="0.0938" d="M416.37,214.68c-2.86-3.67-0.01-8.82,4.4-9.12   c0.41,1.44,0.86,2.9,1.32,4.33C419.7,210.83,417.65,212.42,416.37,214.68z"/>
	<path fill="#E96935" stroke="#E96935" stroke-width="0.0938" d="M442.44,207.88c6.4,9.13,12.38,18.55,18.59,27.81   c2.33,3.93,5.44,7.4,7.19,11.65c-3.78-2.83-6.13-7.04-9.27-10.49c-4.41-5.49-8.89-10.92-13.29-16.41c-1.65-1.68-1.11-4.2-1.86-6.25   c-0.89-1.2-2.14-2.07-3.2-3.09C441.18,210.01,441.8,208.94,442.44,207.88z"/>
	<path fill="#E96935" stroke="#E96935" stroke-width="0.0938" d="M425.26,222.9c1.08-1.27,2.22-2.55,3.6-3.5   c1.43,0.06,2.86,0.17,4.3,0.32c-0.26,2.08-0.79,4.21-2.19,5.83c-1.43,0.68-2.89,1.31-4.33,1.96   C426.21,225.96,425.69,224.44,425.26,222.9z"/>
	<path opacity="0.92" fill="#D44E17" stroke="#D44E17" stroke-width="0.0938" enable-background="new    " d="M586.64,216.96   c1.39-1.96,3.48-3.41,6.01-3.01c0.19,0.43,0.56,1.3,0.75,1.73c-1.64,0.4-3.84,0.22-4.69,2.03c-1.33,1.66-0.05,4.21,1.8,4.82   c1.71,0.86,3.25-0.79,4.65-1.55c0.05,0.59,0.15,1.78,0.2,2.38l-1.35,0.86c-1.66-0.37-3.39-0.58-5.03-0.07   c-0.74-0.73-1.46-1.46-2.16-2.21C587.32,220.31,587.31,218.53,586.64,216.96z"/>
	<path opacity="0.72" fill="#A74A2A" stroke="#A74A2A" stroke-width="0.0938" enable-background="new    " d="M146.69,216.65   c1.13-0.65,2.34-1.1,3.62-1.35l0.21,0.46c-0.31,1.46-2.65,3.1-3.76,1.54L146.69,216.65z"/>
	<path opacity="0.53" fill="#7D4731" stroke="#7D4731" stroke-width="0.0938" enable-background="new    " d="M586.82,221.94   c-1.47-1.23-1.53-3.65-0.18-4.98C587.31,218.53,587.32,220.31,586.82,221.94z"/>
	<path opacity="0.69" fill="#A35635" stroke="#A35635" stroke-width="0.0938" enable-background="new    " d="M351.28,220.06   c-0.76-1.8,3.1-1.9,2.44-0.06C353.11,220.01,351.89,220.05,351.28,220.06z"/>
	<path opacity="0.92" fill="#D24711" stroke="#D24711" stroke-width="0.0938" enable-background="new    " d="M362.35,219.11   c1.26-0.29,3.08-0.71,4.01,0.48c2.18,1.8,0.64,6.11-2.32,5.59C360.75,225.55,359.79,220.64,362.35,219.11 M363.34,220.01   c-2.46,1.14-0.93,4.66,1.48,3.96C367.12,222.88,365.8,219.21,363.34,220.01z"/>
	<path fill="#E96A36" stroke="#E96A36" stroke-width="0.0938" d="M443.57,220.52c5.51,5.6,10.03,12.13,15.23,18.03   c3.23,4.33,7,8.23,10.19,12.6c-0.11,1.24-0.33,2.47-0.64,3.69c-1.85-1.83-3.57-3.77-5.29-5.71c-7.32-8.62-14.86-17.06-22.17-25.69   C441.8,222.48,442.69,221.5,443.57,220.52z"/>
	<path fill="#E96A36" stroke="#E96A36" stroke-width="0.0938" d="M607.05,224.05c3.9-0.12,3.02,4.5,3.25,7.06l-0.84-0.25   C610.57,228.19,609.19,225.66,607.05,224.05z"/>
	<path fill="#E96A36" stroke="#E96A36" stroke-width="0.0938" d="M404.18,231.59c2.26,1.6,2.46,4.72,4.49,6.58   c-0.02,0.87-0.08,2.62-0.11,3.5c-2.08-0.2-4.7-0.53-5.53-2.8C401.66,236.41,403.15,233.84,404.18,231.59z"/>
	<path fill="#E96834" stroke="#E96834" stroke-width="0.0938" d="M405.76,231.59c-3.42-2.94-1.66-8.01,2.02-9.76   c1.69,1.73,3.73,3.12,6.21,3.32l-0.02,0.72C410.08,225.39,407.16,228.26,405.76,231.59z"/>
	<path fill="#E96834" stroke="#E96834" stroke-width="0.0938" d="M440.25,225.91c6.97,7.91,14.12,15.66,21.18,23.49   c2.24,2.53,4.51,5.04,6.77,7.56c-0.44,1.08-0.88,2.17-1.31,3.26c-9.02-9.04-17.8-18.31-26.76-27.4c-1.62-1.04-0.84-2.9-0.54-4.38   C439.75,227.81,440.08,226.54,440.25,225.91z"/>
	<path opacity="0.49" fill="#76422D" stroke="#76422D" stroke-width="0.0938" enable-background="new    " d="M588.98,224.15   c1.64-0.51,3.37-0.3,5.03,0.07C592.64,225.61,590.21,225.84,588.98,224.15z"/>
	<path opacity="0.92" fill="#D44B14" stroke="#D44B14" stroke-width="0.0938" enable-background="new    " d="M595.26,224.83   c0.51-0.2,1.53-0.59,2.04-0.79v1.23c-0.69,2.51-1.77,4.89-2.62,7.35c-1.57,1.63-3.14,3.28-4.76,4.86l0.33-1.74   c0.17-0.32,0.51-0.95,0.68-1.26c-1.06-1.27-2.66-2.54-2.07-4.41c0.35-2.85,3.8-2.21,5.86-2.26   C594.86,227.07,595.12,225.58,595.26,224.83 M590.01,230.22c-0.03,1.25,0.48,2.3,1.54,3.16c0.97-1.2,1.67-2.59,2.31-3.99   C592.43,229.15,590.79,228.54,590.01,230.22z"/>
	<path opacity="0.58" fill="#894C33" stroke="#894C33" stroke-width="0.0938" enable-background="new    " d="M598.95,230.75   c-1.84,0-1.76-4.47,0.08-4.36C599.19,227.84,599.05,229.3,598.95,230.75z"/>
	<path opacity="0.51" fill="#77402A" stroke="#77402A" stroke-width="0.0938" enable-background="new    " d="M465.86,230.19   c0.63-1.74,2.89-1.15,2.43,0.71C467.68,230.72,466.47,230.37,465.86,230.19z"/>
	<path opacity="0.56" fill="#87533D" stroke="#87533D" stroke-width="0.0938" enable-background="new    " d="M153.23,233.1   c1.19-0.21,2.4-0.24,3.61-0.09C157.11,234.72,153.05,234.81,153.23,233.1z"/>
	<path fill="#E96733" stroke="#E96733" stroke-width="0.0938" d="M432.36,234.23c1.79-0.23,3.51-0.79,5.07-1.7   c9.72,9.46,18.82,19.54,28.56,28.98c-1.01,1.09-2.02,2.17-3.02,3.26C452.76,254.59,442.58,244.4,432.36,234.23z"/>
	<path fill="#E96631" stroke="#E96631" stroke-width="0.0938" d="M409.64,238.93c3.67,0.85,6.8-1.06,9.05-3.8   c0.91,1.82,1.89,3.8,1.31,5.91c-1.04,2.84-4.51,5.12-7.46,3.61C410.17,243.8,409.84,241.06,409.64,238.93z"/>
	<path fill="#E96631" stroke="#E96631" stroke-width="0.0938" d="M289.35,385.75c14.96-15.2,30.46-29.88,45.57-44.94   c1.56,1.63,3.23,3.15,4.97,4.61c-15.23,13.68-30.12,27.75-45.12,41.67C292.96,386.66,291.15,386.2,289.35,385.75z"/>
	<path opacity="0.54" fill="#7F4830" stroke="#7F4830" stroke-width="0.0938" enable-background="new    " d="M603.27,235.06   c1.44-0.12,2.91-0.25,4.38-0.11C607.7,236.79,603.26,236.9,603.27,235.06z"/>
	<path fill="#E96934" stroke="#E96934" stroke-width="0.0938" d="M420.64,240.57l1.08,0.09c1.79,0.17,3.6,0.3,5.41,0.39   c9.47,9,19.23,17.72,28.28,27.13c-3.71,0.06-5.94-3.29-8.69-5.23c-7.07-5.9-14.18-11.74-21.27-17.6   C423.74,243.88,421.68,242.66,420.64,240.57z"/>
	<path fill="#E96B37" stroke="#E96B37" stroke-width="0.0938" d="M417.09,245.97c1.1-1.02,2.27-1.96,3.43-2.92   c8.6,7.29,17.3,14.48,26.2,21.4c0.94,0.99,1.87,1.99,2.77,3.02c-3.42-1.4-6.28-3.78-9.3-5.86   C432.53,256.34,424.69,251.33,417.09,245.97z"/>
	<path opacity="0.98" fill="#E3561C" stroke="#E3561C" stroke-width="0.0938" enable-background="new    " d="M112.1,254.07   c3.41-3.05,8.61-1.4,11.01,2.08l-0.09,1.21c-0.14,1.43-0.13,2.89,0,4.33l0.07,1.16c-1.05,1.08-2.1,2.15-3.17,3.22l-1.19-0.05   c-1.47-0.1-2.94-0.06-4.41-0.03C109.12,265.03,107.87,257.09,112.1,254.07 M114.41,255.61c-2.25,1.16-3.18,4.35-1.56,6.41   c1.69,2.86,6.33,2.55,7.74-0.41C122.81,257.95,118.01,253.17,114.41,255.61z"/>
	<path opacity="0.47" fill="#714736" stroke="#714736" stroke-width="0.0938" enable-background="new    " d="M123.02,257.36   c1.86-0.08,1.84,4.36,0,4.33C122.89,260.25,122.88,258.79,123.02,257.36z"/>
	<path opacity="0.58" fill="#8A4E36" stroke="#8A4E36" stroke-width="0.0938" enable-background="new    " d="M103.96,262.32   c1.73-0.66,1.74,3.04,0.01,2.46C103.97,264.17,103.96,262.93,103.96,262.32z"/>
	<path opacity="0.43" fill="#663C2A" stroke="#663C2A" stroke-width="0.0938" enable-background="new    " d="M406.34,262.02   c3.94,0.19,7.84,0.7,11.77,0.97c-4.6,0.49-9.23,0.6-13.85,0.64C404.95,263.09,405.64,262.56,406.34,262.02z"/>
	<path opacity="0.97" fill="#DC3E03" stroke="#DC3E03" stroke-width="0.0938" enable-background="new    " d="M429.63,265.33   c0.25-0.51,0.76-1.53,1.02-2.04c0.57,1.57,0.72,3.18,0.45,4.84C429.87,267.82,429.71,266.36,429.63,265.33z"/>
	<path opacity="0.4" fill="#603D2E" stroke="#603D2E" stroke-width="0.0938" enable-background="new    " d="M114.32,265.99   c1.47-0.03,2.94-0.07,4.41,0.03C118.76,267.9,114.24,267.86,114.32,265.99z"/>
	<path opacity="0.88" fill="#CB4713" stroke="#CB4713" stroke-width="0.0938" enable-background="new    " d="M117.06,271.23   c1-4.08,8.08-0.45,5.41,3.07c-0.21-0.47-0.64-1.4-0.86-1.87c-0.8-1.2-1.98-1.73-3.52-1.56l-0.23,1.73   C117.66,272.26,117.26,271.57,117.06,271.23z"/>
	<path opacity="0.56" fill="#864E37" stroke="#864E37" stroke-width="0.0938" enable-background="new    " d="M116.83,273.99   c-1.48-0.13-1.25-2.91,0.23-2.76c0.2,0.34,0.6,1.03,0.8,1.37l-0.03,0.77C117.58,273.53,117.08,273.84,116.83,273.99z"/>
	<path opacity="0.51" fill="#783C27" stroke="#783C27" stroke-width="0.0938" enable-background="new    " d="M121.61,272.43   c0.22,0.47,0.65,1.4,0.86,1.87c-0.39,0.35-1.17,1.07-1.56,1.42c-0.61-0.41-1.17-0.86-1.69-1.36   C120.03,273.74,120.83,273.09,121.61,272.43z"/>
	<path opacity="0.89" fill="#CC4814" stroke="#CC4814" stroke-width="0.0938" enable-background="new    " d="M116.83,273.99   c0.25-0.15,0.75-0.46,1-0.62c0.35,0.25,1.04,0.75,1.39,0.99c0.52,0.5,1.08,0.95,1.69,1.36   C119.56,276.73,116.73,275.88,116.83,273.99z"/>
	<path opacity="0.36" fill="#58392D" stroke="#58392D" stroke-width="0.0938" enable-background="new    " d="M149.31,278.03   c1.1-0.11,2.22-0.14,3.34-0.1C153.17,279.8,148.96,279.92,149.31,278.03z"/>
	<path opacity="0.38" fill="#5D4034" stroke="#5D4034" stroke-width="0.0938" enable-background="new    " d="M270.17,294.72   c1.25,5.75,1.07,11.69,0.01,17.46C270.29,306.36,270.07,300.54,270.17,294.72z"/>
	<path opacity="0.18" fill="#2B1C15" stroke="#2B1C15" stroke-width="0.0938" enable-background="new    " d="M32.97,308.22   c1.69-3.66,4.69-6.52,8.29-8.28C38.57,302.78,35.78,305.5,32.97,308.22z"/>
	<path fill="#E96732" stroke="#E96732" stroke-width="0.0938" d="M269.94,354.03c9.58-15.85,18.8-31.93,28.5-47.71   c1.16,1.93,2.74,3.53,4.49,4.93c-11.64,15.84-22.86,32.01-34.68,47.71C268.53,357.23,268.96,355.5,269.94,354.03z"/>
	<path fill="#E96732" stroke="#E96732" stroke-width="0.0938" d="M305.23,312.24c0.53-0.09,1.59-0.26,2.12-0.34   c-0.96,2.99-1.83,6.22-0.35,9.21c-12.86,15.41-25.71,30.82-38.73,46.09c-0.24-0.8-0.73-2.4-0.98-3.2   C279.98,346.78,292.37,329.31,305.23,312.24z"/>
	<path fill="#E96732" stroke="#E96732" stroke-width="0.0938" d="M353.43,338.78c1.83,1.27,3.68,2.5,5.55,3.72   c-18.22,13.18-36,26.97-54.06,40.36c-1.37,1.05-3.1,1.37-4.71,1.84c13.55-13.28,27.95-25.7,41.85-38.63   C346.92,346.4,352.25,343.84,353.43,338.78z"/>
	<path opacity="0.56" fill="#864C34" stroke="#864C34" stroke-width="0.0938" enable-background="new    " d="M26.67,324.01   c-1.27-1.84-1.29-4.16-0.11-6.04C27.37,319.9,27.47,322.05,26.67,324.01z"/>
	<path opacity="0.38" fill="#5C3B2E" stroke="#5C3B2E" stroke-width="0.0938" enable-background="new    " d="M28.67,323.09   c-1.14-1.58-1.27-3.63-0.14-5.25C29.39,319.48,29.43,321.39,28.67,323.09z"/>
	<path fill="#E86631" stroke="#E86631" stroke-width="0.0938" d="M33.96,330.97c18.7-6.75,40.26-4.42,57.29,5.78   c12.61,7.34,22.5,18.96,28.24,32.34c-1.8,1.46-3.6,2.91-5.42,4.34c-0.45-0.98-0.9-1.95-1.35-2.91   c-14.79-0.09-28.92-5.39-42.48-10.82c-12.61-6.47-24.83-14.04-35.27-23.71l-0.84-0.14c-12.08,4.67-22.31,14.18-27.08,26.3   c-5.2,12.74-4.36,27.88,2.44,39.87c-0.74,0.8-1.49,1.6-2.24,2.4c-4.14-6.54-6.19-14.17-7.25-21.78v-6.42   c0.72-19.2,13.48-37.1,31.29-44.23c0.39-0.92,0.77-1.85,1.13-2.78C32.93,329.8,33.44,330.38,33.96,330.97 M47.85,331.49   c4.76,0.3,9.55,0.51,14.29-0.04C57.41,330.7,52.58,330.74,47.85,331.49 M38.02,334.61c10.58,9.49,23.05,16.69,35.92,22.61   c11.53,5.13,23.95,8.87,36.67,8.75c-7.22-14.73-20.95-25.93-36.54-30.83C62.44,331.38,49.78,331.37,38.02,334.61z"/>
	<path opacity="0.4" fill="#613F31" stroke="#613F31" stroke-width="0.0938" enable-background="new    " d="M513.09,353.82   c1.28,4.32,1.34,9.06,0,13.38C513.27,362.74,513.27,358.28,513.09,353.82z"/>
	<path opacity="0.38" fill="#5A392B" stroke="#5A392B" stroke-width="0.0938" enable-background="new    " d="M30.68,388.21   c-1.01-3.07-0.89-6.37,0.19-9.4C30.63,381.93,30.56,385.08,30.68,388.21z"/>
	<path fill="#E76733" stroke="#E76733" stroke-width="0.0938" d="M41.41,381.45c5.77-3.37,13.93,0.16,15.62,6.56   c1.78,5.34-1.4,11.55-6.65,13.46c-4.25,1.66-8.67-0.33-12.78-1.44c0.39-0.45,0.78-0.89,1.18-1.33   C33.4,393.99,35.12,384.49,41.41,381.45 M44.33,384.48c-5.3,1.42-6.54,9.33-2,12.36c3.72,2.93,10.01,0.85,10.97-3.87   C54.96,387.85,49.34,382.53,44.33,384.48z"/>
	<path fill="#E8662F" stroke="#E8662F" stroke-width="0.0938" d="M323.88,397.12c0.44-0.09,1.32-0.27,1.76-0.36   c1.55-0.62,3.04,1.82,1.66,2.83c-1.29,1.38-3.32,1.6-5,2.32C322.92,400.34,323.41,398.73,323.88,397.12z"/>
	<path fill="#E96129" stroke="#E96129" stroke-width="0.0938" d="M433.4,426.5c8.58-10.46,22.09-15.58,35.29-16.68   c3.2,0.09,6.39,0.09,9.59-0.03c12.16,1.04,24.2,4.83,34.41,11.57c13.27,9.08,20.72,24.76,22.39,40.45l-1.29,0.54h-0.7   c-1.23-18.44-13-36.01-29.99-43.54c-7.28-3.14-15.1-4.83-22.92-5.95c-5.06-1.14-10.31-1.24-15.37-0.05   c-11.5,1.45-22.64,6.84-30.22,15.71c-4.97,5.93-7.46,13.63-7.64,21.31c-0.48,1.11-0.97,2.22-1.47,3.32   c-0.26-1.03-0.51-2.07-0.73-3.1c0.52-1.68,0.53-3.46,0-5.12C425.7,438.07,428.96,431.74,433.4,426.5z"/>
	<path fill="#E96129" stroke="#E96129" stroke-width="0.0938" d="M429.07,476.15c5.4-0.89,10.51,4.54,9.01,9.92   c-1.04,6.49-10.58,8.46-14.3,3.15C419.82,484.61,423.13,476.83,429.07,476.15 M428.28,479.39c-2.87,1.1-4.35,4.93-2.56,7.56   c1.99,3.77,8.36,3.12,9.47-1.01C436.77,481.95,432.15,477.5,428.28,479.39z"/>
	<path opacity="0.57" fill="#874930" stroke="#874930" stroke-width="0.0938" enable-background="new    " d="M464.81,412.81   c5.06-1.19,10.31-1.09,15.37,0.05C475.05,412.82,469.93,412.77,464.81,412.81z"/>
	<path opacity="0.48" fill="#734836" stroke="#734836" stroke-width="0.0938" enable-background="new    " d="M312.91,430.35   c1.76-0.39,2.1,3.79,0.23,3.57C313.02,432.72,312.95,431.54,312.91,430.35z"/>
	<path opacity="0.41" fill="#633E2F" stroke="#633E2F" stroke-width="0.0938" enable-background="new    " d="M308.33,434.94   c1.16-0.05,2.32,0,3.48,0.16C312.01,436.91,307.88,436.74,308.33,434.94z"/>
	<path opacity="0.29" fill="#463028" stroke="#463028" stroke-width="0.0938" enable-background="new    " d="M216.45,437.98   c0.6-1.93,5.52-1.91,6.14,0C220.54,438.08,218.49,438.09,216.45,437.98z"/>
	<path opacity="0.22" fill="#352D29" stroke="#352D29" stroke-width="0.0938" enable-background="new    " d="M424.75,450.05   c-1.45-1.47-1.45-3.66,0-5.12C425.28,446.59,425.27,448.37,424.75,450.05z"/>
	<path fill="#E86630" stroke="#E86630" stroke-width="0.0938" d="M427.28,451.21c1.91-3.26,4.73-6.47,8.81-6.62   c6.81-0.91,12.84,6.56,10.41,13.02c-1.59,5.29-7.56,7.93-12.73,6.56c3.49,4.51,7.53,8.66,10.44,13.61   c3.38,5.74,1.93,14.01-3.66,17.84c-6.28,4.8-16.14,4.25-21.36-1.86c-4.63-5.01-4.65-13.04-0.74-18.48c-3.9-0.59-7.65-2.8-9.27-6.51   c-2.72-5.42,0.24-12.58,5.83-14.74c3.69-1.72,7.88-0.57,11.14,1.55c-0.17-0.61-0.5-1.82-0.67-2.43c0.5-1.1,0.99-2.21,1.47-3.32   C427.03,450.18,427.2,450.86,427.28,451.21 M434.5,448.54c-4.31,1.58-5.31,7.94-1.77,10.82c3.59,3.44,10.71,0.83,10.7-4.33   C444.1,450.31,438.74,446.71,434.5,448.54 M414.12,459.2c-3.52,3.19-2.34,9.52,1.96,11.41c3.62,1.88,7.95-0.11,9.77-3.53   c-0.11-2-0.06-4.01-0.24-5.99C423.67,456.78,417.32,455.66,414.12,459.2 M429.01,469.6c2.79-0.11,5.49,0.61,8.12,1.48   c-2.31-2.99-4.72-5.89-6.88-9C430.06,464.62,429.81,467.17,429.01,469.6 M426.4,475.5c-6.1,2.48-7.62,11.44-2.53,15.68   c4.96,4.88,14.44,1.83,15.5-5.08C441.26,478.98,433.02,472.31,426.4,475.5z"/>
	<path opacity="0.38" fill="#5D3E31" stroke="#5D3E31" stroke-width="0.0938" enable-background="new    " d="M533.09,462.35h0.7   c0.35,5.13,0.2,10.27-0.04,15.41l-0.65-0.35C533.34,472.39,533.37,467.36,533.09,462.35z"/>
	<path fill="#E33D00" stroke="#E33D00" stroke-width="0.0938" d="M533.79,462.35l1.29-0.54l0.11,0.94   c-0.05,4.84-0.06,9.68-0.08,14.53l-0.13,1.17l-1.23-0.69C533.99,472.62,534.14,467.48,533.79,462.35z"/>
	<path opacity="0.33" fill="#4F352A" stroke="#4F352A" stroke-width="0.0938" enable-background="new    " d="M535.19,462.75   c1.16,4.78,1.1,9.75-0.08,14.53C535.13,472.43,535.14,467.59,535.19,462.75z"/>
	<path opacity="0.16" fill="#27211F" stroke="#27211F" stroke-width="0.0938" enable-background="new    " d="M121.76,465.15   c3.17-0.05,6.34-0.04,9.51,0.03C128.13,466.02,124.9,465.95,121.76,465.15z"/>
	<path opacity="0.19" fill="#2E2724" stroke="#2E2724" stroke-width="0.0938" enable-background="new    " d="M398.22,478.13   c1.53,2.04,1.62,4.72,0.03,6.75C397.68,482.66,397.69,480.36,398.22,478.13z"/>
	<path fill="#E96731" stroke="#E96731" stroke-width="0.0938" d="M519.72,477.75c0.64,2.61,1.1,5.26,1.5,7.93   c-0.06,4.19-0.09,8.38-0.04,12.57c-1.19,12.83-7.84,24.25-15.75,34.1c0.01,0.08,0.03,0.25,0.04,0.33l-0.04-0.33   c5.77-4.19,10.06-10.09,13.94-15.99c7.11-11.84,12.72-25.06,13.73-38.95l0.65,0.35l1.23,0.69c-2.36,19.27-10.82,38.05-24.57,51.87   c-7.84,7.62-17.18,14.21-27.68,17.45c0.02,0.96,0.06,1.93,0.1,2.9c3.16,1.56,6.98,3.88,10.48,1.82c2.8-2.24,5.05-5.23,8.49-6.6   c-3.08,1.8-5.18,4.72-7.89,6.95c-3.83,2.28-8.15,0.02-11.42-2.1801c-0.17-0.5699-0.53-1.71-0.71-2.28   c-4.79,1.62-9.68,2.95-14.67,3.8c-3.19-0.55-6.32-1.36-9.48-2.02c7.3-0.5099,14.48-2.03,21.59-3.68c-1.03-1.87-1.89-3.92-3.54-5.34   c-2.13-1.58-4.98-1.59-7.46-0.99l-0.25-0.95c2.83-0.57,6.15-0.77,8.54,1.16c1.68,1.57,2.41,3.84,3.44,5.84   c5.48-1.97,11.17-3.79,15.8-7.44c12.47-9.56,21.08-24.06,23.56-39.57c0.86-3.76,0.96-7.65-0.08-11.37   c-0.38-1.75-0.84-3.47-1.41-5.15C518.45,481.03,519.08,479.39,519.72,477.75z"/>
	<path opacity="0.34" fill="#51372C" stroke="#51372C" stroke-width="0.0938" enable-background="new    " d="M521.22,485.68   c1,4.14,1,8.43-0.04,12.57C521.13,494.06,521.16,489.87,521.22,485.68z"/>
	<path opacity="0.41" fill="#623F31" stroke="#623F31" stroke-width="0.0938" enable-background="new    " d="M519.23,487.82   c1.04,3.72,0.94,7.61,0.08,11.37C519.35,495.39,519.33,491.6,519.23,487.82z"/>
	<path opacity="0.38" fill="#5C3C2F" stroke="#5C3C2F" stroke-width="0.0938" enable-background="new    " d="M249.83,524.22   c-1.44-7.0699-0.82-14.34,0.01-21.44C249.85,509.93,249.71,517.07,249.83,524.22z"/>
	<path opacity="0.55" fill="#7F391C" stroke="#7F391C" stroke-width="0.0938" enable-background="new    " d="M505.47,532.68   c-0.01-0.08-0.03-0.25-0.04-0.33L505.47,532.68z"/>
	<path opacity="0.54" fill="#7F442D" stroke="#7F442D" stroke-width="0.0938" enable-background="new    " d="M396.01,533.14   c1.99-0.79,4.22-0.69,5.92,0.71C399.92,534.51,397.75,534.38,396.01,533.14z"/>
</g>
</svg>